<?xml version="1.0" encoding="UTF-8" standalone="no"?>
<!DOCTYPE svg PUBLIC "-//W3C//DTD SVG 1.1//EN"
 "http://www.w3.org/Graphics/SVG/1.1/DTD/svg11.dtd">
<!-- Generated by graphviz version 2.43.0 (0)
 -->
<!-- Title: textX Pages: 1 -->
<svg width="530pt" height="916pt"
 viewBox="0.00 0.00 530.00 916.00" xmlns="http://www.w3.org/2000/svg" xmlns:xlink="http://www.w3.org/1999/xlink">
<g id="graph0" class="graph" transform="scale(1 1) rotate(0) translate(4 912)">
<title>textX</title>
<polygon fill="white" stroke="transparent" points="-4,4 -4,-912 526,-912 526,4 -4,4"/>
<!-- 127296769972016 -->
<g id="node1" class="node">
<title>127296769972016</title>
<polygon fill="aliceblue" stroke="black" points="100.5,-683.5 100.5,-729.5 188.5,-729.5 188.5,-683.5 100.5,-683.5"/>
<text text-anchor="middle" x="144.5" y="-714.3" font-family="Times,serif" font-size="14.00">DateMath</text>
<polyline fill="none" stroke="black" points="100.5,-706.5 188.5,-706.5 "/>
<text text-anchor="middle" x="144.5" y="-691.3" font-family="Times,serif" font-size="14.00"> </text>
</g>
<!-- 127296768082576 -->
<g id="node2" class="node">
<title>127296768082576</title>
<polygon fill="aliceblue" stroke="black" points="0,-422.5 0,-468.5 137,-468.5 137,-422.5 0,-422.5"/>
<text text-anchor="middle" x="68.5" y="-453.3" font-family="Times,serif" font-size="14.00">Anchor</text>
<polyline fill="none" stroke="black" points="0,-445.5 137,-445.5 "/>
<text text-anchor="start" x="8" y="-430.3" font-family="Times,serif" font-size="14.00">isodate: ISODate</text>
</g>
<!-- 127296769972016&#45;&gt;127296768082576 -->
<g id="edge1" class="edge">
<title>127296769972016&#45;&gt;127296768082576</title>
<path fill="none" stroke="black" d="M134.61,-671.79C119.85,-621.5 92.26,-527.47 77.83,-478.31"/>
<polygon fill="black" stroke="black" points="134.64,-671.9 140.17,-676.53 138.02,-683.42 132.49,-678.79 134.64,-671.9"/>
<polygon fill="black" stroke="black" points="81.14,-477.14 74.96,-468.53 74.42,-479.11 81.14,-477.14"/>
<text text-anchor="middle" x="47.96" y="-472.33" font-family="Times,serif" font-size="14.00">anchor </text>
</g>
<!-- 127296768089728 -->
<g id="node3" class="node">
<title>127296768089728</title>
<polygon fill="aliceblue" stroke="black" points="159,-422.5 159,-468.5 284,-468.5 284,-422.5 159,-422.5"/>
<text text-anchor="middle" x="221.5" y="-453.3" font-family="Times,serif" font-size="14.00">DateMathTerm</text>
<polyline fill="none" stroke="black" points="159,-445.5 284,-445.5 "/>
<text text-anchor="middle" x="221.5" y="-430.3" font-family="Times,serif" font-size="14.00"> </text>
</g>
<!-- 127296769972016&#45;&gt;127296768089728 -->
<g id="edge2" class="edge">
<title>127296769972016&#45;&gt;127296768089728</title>
<path fill="none" stroke="black" d="M153.15,-671.69C163.57,-631.65 181.99,-563.08 200.5,-505 203.31,-496.19 206.59,-486.71 209.72,-478.01"/>
<polygon fill="black" stroke="black" points="153.12,-671.77 155.49,-678.58 150.12,-683.39 147.75,-676.58 153.12,-671.77"/>
<polygon fill="black" stroke="black" points="213.01,-479.19 213.14,-468.59 206.43,-476.8 213.01,-479.19"/>
<text text-anchor="middle" x="286.14" y="-472.39" font-family="Times,serif" font-size="14.00">date_math_term 0..*</text>
</g>
<!-- 127296768092032 -->
<g id="node4" class="node">
<title>127296768092032</title>
<polygon fill="aliceblue" stroke="black" points="10,-339.5 10,-385.5 127,-385.5 127,-339.5 10,-339.5"/>
<text text-anchor="middle" x="68.5" y="-370.3" font-family="Times,serif" font-size="14.00">TimezoneNow</text>
<polyline fill="none" stroke="black" points="10,-362.5 127,-362.5 "/>
<text text-anchor="start" x="18" y="-347.3" font-family="Times,serif" font-size="14.00">tz: STRING</text>
</g>
<!-- 127296768082576&#45;&gt;127296768092032 -->
<g id="edge3" class="edge">
<title>127296768082576&#45;&gt;127296768092032</title>
<path fill="none" stroke="black" d="M68.5,-410.2C68.5,-405.39 68.5,-400.45 68.5,-395.68"/>
<polygon fill="black" stroke="black" points="68.5,-410.37 72.5,-416.37 68.5,-422.37 64.5,-416.37 68.5,-410.37"/>
<polygon fill="black" stroke="black" points="72,-395.61 68.5,-385.61 65,-395.61 72,-395.61"/>
<text text-anchor="middle" x="44.5" y="-389.41" font-family="Times,serif" font-size="14.00">tznow </text>
</g>
<!-- 127296768092128 -->
<g id="node5" class="node">
<title>127296768092128</title>
<polygon fill="aliceblue" stroke="black" points="172.5,-339.5 172.5,-385.5 270.5,-385.5 270.5,-339.5 172.5,-339.5"/>
<text text-anchor="middle" x="221.5" y="-370.3" font-family="Times,serif" font-size="14.00">*Statement</text>
<polyline fill="none" stroke="black" points="172.5,-362.5 270.5,-362.5 "/>
<text text-anchor="middle" x="221.5" y="-347.3" font-family="Times,serif" font-size="14.00"> </text>
</g>
<!-- 127296768089728&#45;&gt;127296768092128 -->
<g id="edge4" class="edge">
<title>127296768089728&#45;&gt;127296768092128</title>
<path fill="none" stroke="black" d="M221.5,-410.2C221.5,-405.39 221.5,-400.45 221.5,-395.68"/>
<polygon fill="black" stroke="black" points="221.5,-410.37 225.5,-416.37 221.5,-422.37 217.5,-416.37 221.5,-410.37"/>
<polygon fill="black" stroke="black" points="225,-395.61 221.5,-385.61 218,-395.61 225,-395.61"/>
<text text-anchor="middle" x="182.5" y="-389.41" font-family="Times,serif" font-size="14.00">statement </text>
</g>
<!-- 127296768092080 -->
<g id="node6" class="node">
<title>127296768092080</title>
<polygon fill="aliceblue" stroke="black" points="288.5,-256.5 288.5,-302.5 342.5,-302.5 342.5,-256.5 288.5,-256.5"/>
<text text-anchor="middle" x="315.5" y="-287.3" font-family="Times,serif" font-size="14.00">Floor</text>
<polyline fill="none" stroke="black" points="288.5,-279.5 342.5,-279.5 "/>
<text text-anchor="middle" x="315.5" y="-264.3" font-family="Times,serif" font-size="14.00"> </text>
</g>
<!-- 127296768092128&#45;&gt;127296768092080 -->
<g id="edge5" class="edge">
<title>127296768092128&#45;&gt;127296768092080</title>
<path fill="none" stroke="black" d="M254.91,-332.71C266.4,-322.81 279.07,-311.89 289.85,-302.61"/>
<polygon fill="none" stroke="black" points="252.48,-330.19 247.19,-339.37 257.05,-335.49 252.48,-330.19"/>
</g>
<!-- 127296768092320 -->
<g id="node7" class="node">
<title>127296768092320</title>
<polygon fill="aliceblue" stroke="black" points="97.5,-173.5 97.5,-219.5 187.5,-219.5 187.5,-173.5 97.5,-173.5"/>
<text text-anchor="middle" x="142.5" y="-204.3" font-family="Times,serif" font-size="14.00">Plus</text>
<polyline fill="none" stroke="black" points="97.5,-196.5 187.5,-196.5 "/>
<text text-anchor="start" x="105.5" y="-181.3" font-family="Times,serif" font-size="14.00">steps: INT</text>
</g>
<!-- 127296768092128&#45;&gt;127296768092320 -->
<g id="edge6" class="edge">
<title>127296768092128&#45;&gt;127296768092320</title>
<path fill="none" stroke="black" d="M187.46,-332.21C179.19,-323.56 171.12,-313.56 165.5,-303 151.41,-276.52 145.95,-241.93 143.83,-219.71"/>
<polygon fill="none" stroke="black" points="185.17,-334.87 194.72,-339.44 190.11,-329.91 185.17,-334.87"/>
</g>
<!-- 127296768091552 -->
<g id="node8" class="node">
<title>127296768091552</title>
<polygon fill="aliceblue" stroke="black" points="176.5,-256.5 176.5,-302.5 266.5,-302.5 266.5,-256.5 176.5,-256.5"/>
<text text-anchor="middle" x="221.5" y="-287.3" font-family="Times,serif" font-size="14.00">Minus</text>
<polyline fill="none" stroke="black" points="176.5,-279.5 266.5,-279.5 "/>
<text text-anchor="start" x="184.5" y="-264.3" font-family="Times,serif" font-size="14.00">steps: INT</text>
</g>
<!-- 127296768092128&#45;&gt;127296768091552 -->
<g id="edge7" class="edge">
<title>127296768092128&#45;&gt;127296768091552</title>
<path fill="none" stroke="black" d="M221.5,-329.25C221.5,-320.31 221.5,-310.82 221.5,-302.61"/>
<polygon fill="none" stroke="black" points="218,-329.37 221.5,-339.37 225,-329.37 218,-329.37"/>
</g>
<!-- 127296768091936 -->
<g id="node9" class="node">
<title>127296768091936</title>
<polygon fill="aliceblue" stroke="black" points="266,-173.5 266,-219.5 365,-219.5 365,-173.5 266,-173.5"/>
<text text-anchor="middle" x="315.5" y="-204.3" font-family="Times,serif" font-size="14.00">*Clampable</text>
<polyline fill="none" stroke="black" points="266,-196.5 365,-196.5 "/>
<text text-anchor="middle" x="315.5" y="-181.3" font-family="Times,serif" font-size="14.00"> </text>
</g>
<!-- 127296768092080&#45;&gt;127296768091936 -->
<g id="edge8" class="edge">
<title>127296768092080&#45;&gt;127296768091936</title>
<path fill="none" stroke="black" d="M315.5,-244.2C315.5,-239.39 315.5,-234.45 315.5,-229.68"/>
<polygon fill="black" stroke="black" points="315.5,-244.37 319.5,-250.37 315.5,-256.37 311.5,-250.37 315.5,-244.37"/>
<polygon fill="black" stroke="black" points="319,-229.61 315.5,-219.61 312,-229.61 319,-229.61"/>
<text text-anchor="middle" x="301.5" y="-223.41" font-family="Times,serif" font-size="14.00">res </text>
</g>
<!-- 127296768095200 -->
<g id="node10" class="node">
<title>127296768095200</title>
<polygon fill="aliceblue" stroke="black" points="99,-15.5 99,-121.5 222,-121.5 222,-15.5 99,-15.5"/>
<text text-anchor="middle" x="160.5" y="-106.3" font-family="Times,serif" font-size="14.00">TimeUnitShort</text>
<polyline fill="none" stroke="black" points="99,-98.5 222,-98.5 "/>
<text text-anchor="start" x="107" y="-83.3" font-family="Times,serif" font-size="14.00">W: W</text>
<text text-anchor="start" x="107" y="-68.3" font-family="Times,serif" font-size="14.00">d: d</text>
<text text-anchor="start" x="107" y="-53.3" font-family="Times,serif" font-size="14.00">M: M</text>
<text text-anchor="start" x="107" y="-38.3" font-family="Times,serif" font-size="14.00">H: H</text>
<text text-anchor="start" x="107" y="-23.3" font-family="Times,serif" font-size="14.00">S: S</text>
</g>
<!-- 127296768092320&#45;&gt;127296768095200 -->
<g id="edge9" class="edge">
<title>127296768092320&#45;&gt;127296768095200</title>
<path fill="none" stroke="black" d="M147.39,-161.29C148.7,-152.12 150.16,-141.91 151.61,-131.73"/>
<polygon fill="black" stroke="black" points="147.37,-161.38 150.48,-167.89 145.68,-173.26 142.57,-166.76 147.37,-161.38"/>
<polygon fill="black" stroke="black" points="155.11,-131.99 153.06,-121.59 148.18,-131 155.11,-131.99"/>
<text text-anchor="middle" x="139.06" y="-125.39" font-family="Times,serif" font-size="14.00">res </text>
</g>
<!-- 127296768091552&#45;&gt;127296768095200 -->
<g id="edge10" class="edge">
<title>127296768091552&#45;&gt;127296768095200</title>
<path fill="none" stroke="black" d="M215.3,-244.39C211.21,-223.59 205.36,-196.55 198.5,-173 194.54,-159.39 189.69,-145 184.8,-131.42"/>
<polygon fill="black" stroke="black" points="215.35,-244.67 220.41,-249.81 217.61,-256.46 212.55,-251.32 215.35,-244.67"/>
<polygon fill="black" stroke="black" points="187.97,-129.88 181.24,-121.69 181.39,-132.28 187.97,-129.88"/>
<text text-anchor="middle" x="167.24" y="-125.49" font-family="Times,serif" font-size="14.00">res </text>
</g>
<!-- 127296768091936&#45;&gt;127296768095200 -->
<g id="edge12" class="edge">
<title>127296768091936&#45;&gt;127296768095200</title>
<path fill="none" stroke="black" d="M274.01,-167.43C260.8,-158.09 246.3,-147.41 233.5,-137 227.61,-132.21 221.59,-127.07 215.65,-121.84"/>
<polygon fill="none" stroke="black" points="272.27,-170.49 282.47,-173.36 276.29,-164.76 272.27,-170.49"/>
</g>
<!-- 127296768092176 -->
<g id="node11" class="node">
<title>127296768092176</title>
<polygon fill="aliceblue" stroke="black" points="244.5,-38 244.5,-99 386.5,-99 386.5,-38 244.5,-38"/>
<text text-anchor="middle" x="315.5" y="-83.8" font-family="Times,serif" font-size="14.00">VariableTimeUnit</text>
<polyline fill="none" stroke="black" points="244.5,-76 386.5,-76 "/>
<text text-anchor="start" x="252.5" y="-60.8" font-family="Times,serif" font-size="14.00">Y: Y</text>
<text text-anchor="start" x="252.5" y="-45.8" font-family="Times,serif" font-size="14.00">m: m</text>
</g>
<!-- 127296768091936&#45;&gt;127296768092176 -->
<g id="edge13" class="edge">
<title>127296768091936&#45;&gt;127296768092176</title>
<path fill="none" stroke="black" d="M315.5,-163.19C315.5,-143.42 315.5,-118.33 315.5,-99.08"/>
<polygon fill="none" stroke="black" points="312,-163.26 315.5,-173.26 319,-163.26 312,-163.26"/>
</g>
<!-- 127296768092416 -->
<g id="node12" class="node">
<title>127296768092416</title>
<polygon fill="aliceblue" stroke="black" points="409,-0.5 409,-136.5 498,-136.5 498,-0.5 409,-0.5"/>
<text text-anchor="middle" x="453.5" y="-121.3" font-family="Times,serif" font-size="14.00">WeekDay</text>
<polyline fill="none" stroke="black" points="409,-113.5 498,-113.5 "/>
<text text-anchor="start" x="417" y="-98.3" font-family="Times,serif" font-size="14.00">Mon: Mon</text>
<text text-anchor="start" x="417" y="-83.3" font-family="Times,serif" font-size="14.00">Tue: Tue</text>
<text text-anchor="start" x="417" y="-68.3" font-family="Times,serif" font-size="14.00">Wed: Wed</text>
<text text-anchor="start" x="417" y="-53.3" font-family="Times,serif" font-size="14.00">Thu: Thu</text>
<text text-anchor="start" x="417" y="-38.3" font-family="Times,serif" font-size="14.00">Fri: Fri</text>
<text text-anchor="start" x="417" y="-23.3" font-family="Times,serif" font-size="14.00">Sat: Sat</text>
<text text-anchor="start" x="417" y="-8.3" font-family="Times,serif" font-size="14.00">Sun: Sun</text>
</g>
<!-- 127296768091936&#45;&gt;127296768092416 -->
<g id="edge11" class="edge">
<title>127296768091936&#45;&gt;127296768092416</title>
<path fill="none" stroke="black" d="M358.89,-167.69C371.85,-158.56 385.73,-147.94 397.5,-137 401.29,-133.48 405.06,-129.7 408.76,-125.79"/>
<polygon fill="none" stroke="black" points="356.77,-164.89 350.53,-173.45 360.75,-170.65 356.77,-164.89"/>
</g>
<!-- match_rules -->
<g id="node13" class="node">
<title>match_rules</title>
<polygon fill="aliceblue" stroke="transparent" points="522,-908 211,-908 211,-505 522,-505 522,-908"/>
<polygon fill="none" stroke="black" points="222.5,-879.5 222.5,-900.5 307.5,-900.5 307.5,-879.5 222.5,-879.5"/>
<text text-anchor="start" x="226.5" y="-887.3" font-family="Times,serif" font-weight="bold" font-size="14.00">Comment</text>
<polygon fill="none" stroke="black" points="309.5,-879.5 309.5,-900.5 511.5,-900.5 511.5,-879.5 309.5,-879.5"/>
<text text-anchor="start" x="341" y="-886.3" font-family="Times,serif" font-size="14.00">\/\*(.|\n)*?\*\/|\/\/.*?$</text>
<polygon fill="none" stroke="black" points="222.5,-856.5 222.5,-877.5 307.5,-877.5 307.5,-856.5 222.5,-856.5"/>
<text text-anchor="start" x="253.5" y="-864.3" font-family="Times,serif" font-weight="bold" font-size="14.00">Fri</text>
<polygon fill="none" stroke="black" points="309.5,-856.5 309.5,-877.5 511.5,-877.5 511.5,-856.5 309.5,-856.5"/>
<text text-anchor="start" x="388.5" y="-863.3" font-family="Times,serif" font-size="14.00">\bfri\b</text>
<polygon fill="none" stroke="black" points="222.5,-833.5 222.5,-854.5 307.5,-854.5 307.5,-833.5 222.5,-833.5"/>
<text text-anchor="start" x="258" y="-841.3" font-family="Times,serif" font-weight="bold" font-size="14.00">H</text>
<polygon fill="none" stroke="black" points="309.5,-833.5 309.5,-854.5 511.5,-854.5 511.5,-833.5 309.5,-833.5"/>
<text text-anchor="start" x="354.5" y="-840.3" font-family="Times,serif" font-size="14.00">([hH]ours?|H\b)</text>
<polygon fill="none" stroke="black" points="222.5,-810.5 222.5,-831.5 307.5,-831.5 307.5,-810.5 222.5,-810.5"/>
<text text-anchor="start" x="232" y="-818.3" font-family="Times,serif" font-weight="bold" font-size="14.00">ISODate</text>
<polygon fill="none" stroke="black" points="309.5,-810.5 309.5,-831.5 511.5,-831.5 511.5,-810.5 309.5,-810.5"/>
<text text-anchor="start" x="384.5" y="-817.3" font-family="Times,serif" font-size="14.00">\d+\S+</text>
<polygon fill="none" stroke="black" points="222.5,-787.5 222.5,-808.5 307.5,-808.5 307.5,-787.5 222.5,-787.5"/>
<text text-anchor="start" x="257" y="-795.3" font-family="Times,serif" font-weight="bold" font-size="14.00">M</text>
<polygon fill="none" stroke="black" points="309.5,-787.5 309.5,-808.5 511.5,-808.5 511.5,-787.5 309.5,-787.5"/>
<text text-anchor="start" x="344" y="-794.3" font-family="Times,serif" font-size="14.00">([mM]inutes?|M\b)</text>
<polygon fill="none" stroke="black" points="222.5,-764.5 222.5,-785.5 307.5,-785.5 307.5,-764.5 222.5,-764.5"/>
<text text-anchor="start" x="247" y="-772.3" font-family="Times,serif" font-weight="bold" font-size="14.00">Mon</text>
<polygon fill="none" stroke="black" points="309.5,-764.5 309.5,-785.5 511.5,-785.5 511.5,-764.5 309.5,-764.5"/>
<text text-anchor="start" x="381.5" y="-771.3" font-family="Times,serif" font-size="14.00">\bmon\b</text>
<polygon fill="none" stroke="black" points="222.5,-741.5 222.5,-762.5 307.5,-762.5 307.5,-741.5 222.5,-741.5"/>
<text text-anchor="start" x="225.5" y="-749.3" font-family="Times,serif" font-weight="bold" font-size="14.00">NaiveNow</text>
<polygon fill="none" stroke="black" points="309.5,-741.5 309.5,-762.5 511.5,-762.5 511.5,-741.5 309.5,-741.5"/>
<text text-anchor="start" x="395.5" y="-748.3" font-family="Times,serif" font-size="14.00">now</text>
<polygon fill="none" stroke="black" points="222.5,-718.5 222.5,-739.5 307.5,-739.5 307.5,-718.5 222.5,-718.5"/>
<text text-anchor="start" x="260" y="-726.3" font-family="Times,serif" font-weight="bold" font-size="14.00">S</text>
<polygon fill="none" stroke="black" points="309.5,-718.5 309.5,-739.5 511.5,-739.5 511.5,-718.5 309.5,-718.5"/>
<text text-anchor="start" x="321.5" y="-725.3" font-family="Times,serif" font-size="14.00">(?!sat$)([sS]econds?|S\b)</text>
<polygon fill="none" stroke="black" points="222.5,-695.5 222.5,-716.5 307.5,-716.5 307.5,-695.5 222.5,-695.5"/>
<text text-anchor="start" x="252" y="-703.3" font-family="Times,serif" font-weight="bold" font-size="14.00">Sat</text>
<polygon fill="none" stroke="black" points="309.5,-695.5 309.5,-716.5 511.5,-716.5 511.5,-695.5 309.5,-695.5"/>
<text text-anchor="start" x="386" y="-702.3" font-family="Times,serif" font-size="14.00">\bsat\b</text>
<polygon fill="none" stroke="black" points="222.5,-672.5 222.5,-693.5 307.5,-693.5 307.5,-672.5 222.5,-672.5"/>
<text text-anchor="start" x="249.5" y="-680.3" font-family="Times,serif" font-weight="bold" font-size="14.00">Sun</text>
<polygon fill="none" stroke="black" points="309.5,-672.5 309.5,-693.5 511.5,-693.5 511.5,-672.5 309.5,-672.5"/>
<text text-anchor="start" x="384" y="-679.3" font-family="Times,serif" font-size="14.00">\bsun\b</text>
<polygon fill="none" stroke="black" points="222.5,-649.5 222.5,-670.5 307.5,-670.5 307.5,-649.5 222.5,-649.5"/>
<text text-anchor="start" x="249" y="-657.3" font-family="Times,serif" font-weight="bold" font-size="14.00">Thu</text>
<polygon fill="none" stroke="black" points="309.5,-649.5 309.5,-670.5 511.5,-670.5 511.5,-649.5 309.5,-649.5"/>
<text text-anchor="start" x="384.5" y="-656.3" font-family="Times,serif" font-size="14.00">\bthu\b</text>
<polygon fill="none" stroke="black" points="222.5,-626.5 222.5,-647.5 307.5,-647.5 307.5,-626.5 222.5,-626.5"/>
<text text-anchor="start" x="250.5" y="-634.3" font-family="Times,serif" font-weight="bold" font-size="14.00">Tue</text>
<polygon fill="none" stroke="black" points="309.5,-626.5 309.5,-647.5 511.5,-647.5 511.5,-626.5 309.5,-626.5"/>
<text text-anchor="start" x="385" y="-633.3" font-family="Times,serif" font-size="14.00">\btue\b</text>
<polygon fill="none" stroke="black" points="222.5,-603.5 222.5,-624.5 307.5,-624.5 307.5,-603.5 222.5,-603.5"/>
<text text-anchor="start" x="257" y="-611.3" font-family="Times,serif" font-weight="bold" font-size="14.00">W</text>
<polygon fill="none" stroke="black" points="309.5,-603.5 309.5,-624.5 511.5,-624.5 511.5,-603.5 309.5,-603.5"/>
<text text-anchor="start" x="350.5" y="-610.3" font-family="Times,serif" font-size="14.00">([wW]eeks?|W\b)</text>
<polygon fill="none" stroke="black" points="222.5,-580.5 222.5,-601.5 307.5,-601.5 307.5,-580.5 222.5,-580.5"/>
<text text-anchor="start" x="248" y="-588.3" font-family="Times,serif" font-weight="bold" font-size="14.00">Wed</text>
<polygon fill="none" stroke="black" points="309.5,-580.5 309.5,-601.5 511.5,-601.5 511.5,-580.5 309.5,-580.5"/>
<text text-anchor="start" x="382" y="-587.3" font-family="Times,serif" font-size="14.00">\bwed\b</text>
<polygon fill="none" stroke="black" points="222.5,-557.5 222.5,-578.5 307.5,-578.5 307.5,-557.5 222.5,-557.5"/>
<text text-anchor="start" x="260" y="-565.3" font-family="Times,serif" font-weight="bold" font-size="14.00">Y</text>
<polygon fill="none" stroke="black" points="309.5,-557.5 309.5,-578.5 511.5,-578.5 511.5,-557.5 309.5,-557.5"/>
<text text-anchor="start" x="358.5" y="-564.3" font-family="Times,serif" font-size="14.00">([Yy]ears?|Y\b)</text>
<polygon fill="none" stroke="black" points="222.5,-534.5 222.5,-555.5 307.5,-555.5 307.5,-534.5 222.5,-534.5"/>
<text text-anchor="start" x="260" y="-542.3" font-family="Times,serif" font-weight="bold" font-size="14.00">d</text>
<polygon fill="none" stroke="black" points="309.5,-534.5 309.5,-555.5 511.5,-555.5 511.5,-534.5 309.5,-534.5"/>
<text text-anchor="start" x="360.5" y="-541.3" font-family="Times,serif" font-size="14.00">([dD]ays?|d\b)</text>
<polygon fill="none" stroke="black" points="222.5,-511.5 222.5,-532.5 307.5,-532.5 307.5,-511.5 222.5,-511.5"/>
<text text-anchor="start" x="257" y="-519.3" font-family="Times,serif" font-weight="bold" font-size="14.00">m</text>
<polygon fill="none" stroke="black" points="309.5,-511.5 309.5,-532.5 511.5,-532.5 511.5,-511.5 309.5,-511.5"/>
<text text-anchor="start" x="312.5" y="-518.3" font-family="Times,serif" font-size="14.00">(?!mon\b)([mM]onths?|m\b)</text>
<polygon fill="none" stroke="black" points="219,-509 219,-904 514,-904 514,-509 219,-509"/>
</g>
</g>
</svg>
