<?xml version="1.0" encoding="UTF-8" standalone="no"?>
<!DOCTYPE svg PUBLIC "-//W3C//DTD SVG 1.1//EN"
 "http://www.w3.org/Graphics/SVG/1.1/DTD/svg11.dtd">
<!-- Generated by graphviz version 2.43.0 (0)
 -->
<!-- Title: textX Pages: 1 -->
<svg width="683pt" height="939pt"
 viewBox="0.00 0.00 682.50 939.00" xmlns="http://www.w3.org/2000/svg" xmlns:xlink="http://www.w3.org/1999/xlink">
<g id="graph0" class="graph" transform="scale(1 1) rotate(0) translate(4 935)">
<title>textX</title>
<polygon fill="white" stroke="transparent" points="-4,4 -4,-935 678.5,-935 678.5,4 -4,4"/>
<!-- 126877482545376 -->
<g id="node1" class="node">
<title>126877482545376</title>
<polygon fill="aliceblue" stroke="black" points="100.5,-695 100.5,-741 188.5,-741 188.5,-695 100.5,-695"/>
<text text-anchor="middle" x="144.5" y="-725.8" font-family="Times,serif" font-size="14.00">DateMath</text>
<polyline fill="none" stroke="black" points="100.5,-718 188.5,-718 "/>
<text text-anchor="middle" x="144.5" y="-702.8" font-family="Times,serif" font-size="14.00"> </text>
</g>
<!-- 126877482545280 -->
<g id="node2" class="node">
<title>126877482545280</title>
<polygon fill="aliceblue" stroke="black" points="0,-422.5 0,-468.5 137,-468.5 137,-422.5 0,-422.5"/>
<text text-anchor="middle" x="68.5" y="-453.3" font-family="Times,serif" font-size="14.00">Anchor</text>
<polyline fill="none" stroke="black" points="0,-445.5 137,-445.5 "/>
<text text-anchor="start" x="8" y="-430.3" font-family="Times,serif" font-size="14.00">isodate: ISODate</text>
</g>
<!-- 126877482545376&#45;&gt;126877482545280 -->
<g id="edge1" class="edge">
<title>126877482545376&#45;&gt;126877482545280</title>
<path fill="none" stroke="black" d="M134.97,-683.09C120.19,-630.47 91.92,-529.86 77.48,-478.45"/>
<polygon fill="black" stroke="black" points="135.03,-683.31 140.51,-688.01 138.28,-694.86 132.81,-690.17 135.03,-683.31"/>
<polygon fill="black" stroke="black" points="80.77,-477.24 74.7,-468.56 74.03,-479.14 80.77,-477.24"/>
<text text-anchor="middle" x="47.7" y="-472.36" font-family="Times,serif" font-size="14.00">anchor </text>
</g>
<!-- 126877480595824 -->
<g id="node3" class="node">
<title>126877480595824</title>
<polygon fill="aliceblue" stroke="black" points="159,-422.5 159,-468.5 284,-468.5 284,-422.5 159,-422.5"/>
<text text-anchor="middle" x="221.5" y="-453.3" font-family="Times,serif" font-size="14.00">DateMathTerm</text>
<polyline fill="none" stroke="black" points="159,-445.5 284,-445.5 "/>
<text text-anchor="middle" x="221.5" y="-430.3" font-family="Times,serif" font-size="14.00"> </text>
</g>
<!-- 126877482545376&#45;&gt;126877480595824 -->
<g id="edge2" class="edge">
<title>126877482545376&#45;&gt;126877480595824</title>
<path fill="none" stroke="black" d="M152.14,-683.05C161.88,-640.92 179.84,-567.06 199.5,-505 202.31,-496.13 205.7,-486.64 208.98,-477.94"/>
<polygon fill="black" stroke="black" points="152.12,-683.11 154.68,-689.85 149.44,-694.81 146.88,-688.06 152.12,-683.11"/>
<polygon fill="black" stroke="black" points="212.27,-479.12 212.58,-468.53 205.74,-476.62 212.27,-479.12"/>
<text text-anchor="middle" x="285.58" y="-472.33" font-family="Times,serif" font-size="14.00">date_math_term 0..*</text>
</g>
<!-- 126877480595680 -->
<g id="node4" class="node">
<title>126877480595680</title>
<polygon fill="aliceblue" stroke="black" points="10,-339.5 10,-385.5 127,-385.5 127,-339.5 10,-339.5"/>
<text text-anchor="middle" x="68.5" y="-370.3" font-family="Times,serif" font-size="14.00">TimezoneNow</text>
<polyline fill="none" stroke="black" points="10,-362.5 127,-362.5 "/>
<text text-anchor="start" x="18" y="-347.3" font-family="Times,serif" font-size="14.00">tz: STRING</text>
</g>
<!-- 126877482545280&#45;&gt;126877480595680 -->
<g id="edge3" class="edge">
<title>126877482545280&#45;&gt;126877480595680</title>
<path fill="none" stroke="black" d="M68.5,-410.2C68.5,-405.39 68.5,-400.45 68.5,-395.68"/>
<polygon fill="black" stroke="black" points="68.5,-410.37 72.5,-416.37 68.5,-422.37 64.5,-416.37 68.5,-410.37"/>
<polygon fill="black" stroke="black" points="72,-395.61 68.5,-385.61 65,-395.61 72,-395.61"/>
<text text-anchor="middle" x="44.5" y="-389.41" font-family="Times,serif" font-size="14.00">tznow </text>
</g>
<!-- 126877480595776 -->
<g id="node5" class="node">
<title>126877480595776</title>
<polygon fill="aliceblue" stroke="black" points="172.5,-339.5 172.5,-385.5 270.5,-385.5 270.5,-339.5 172.5,-339.5"/>
<text text-anchor="middle" x="221.5" y="-370.3" font-family="Times,serif" font-size="14.00">*Statement</text>
<polyline fill="none" stroke="black" points="172.5,-362.5 270.5,-362.5 "/>
<text text-anchor="middle" x="221.5" y="-347.3" font-family="Times,serif" font-size="14.00"> </text>
</g>
<!-- 126877480595824&#45;&gt;126877480595776 -->
<g id="edge4" class="edge">
<title>126877480595824&#45;&gt;126877480595776</title>
<path fill="none" stroke="black" d="M221.5,-410.2C221.5,-405.39 221.5,-400.45 221.5,-395.68"/>
<polygon fill="black" stroke="black" points="221.5,-410.37 225.5,-416.37 221.5,-422.37 217.5,-416.37 221.5,-410.37"/>
<polygon fill="black" stroke="black" points="225,-395.61 221.5,-385.61 218,-395.61 225,-395.61"/>
<text text-anchor="middle" x="182.5" y="-389.41" font-family="Times,serif" font-size="14.00">statement </text>
</g>
<!-- 126877480596256 -->
<g id="node6" class="node">
<title>126877480596256</title>
<polygon fill="aliceblue" stroke="black" points="72.5,-256.5 72.5,-302.5 164.5,-302.5 164.5,-256.5 72.5,-256.5"/>
<text text-anchor="middle" x="118.5" y="-287.3" font-family="Times,serif" font-size="14.00">CwModulo</text>
<polyline fill="none" stroke="black" points="72.5,-279.5 164.5,-279.5 "/>
<text text-anchor="start" x="80.5" y="-264.3" font-family="Times,serif" font-size="14.00">value: INT</text>
</g>
<!-- 126877480595776&#45;&gt;126877480596256 -->
<g id="edge8" class="edge">
<title>126877480595776&#45;&gt;126877480596256</title>
<path fill="none" stroke="black" d="M185.25,-332.99C172.57,-323.02 158.53,-311.98 146.61,-302.61"/>
<polygon fill="none" stroke="black" points="183.33,-335.94 193.35,-339.37 187.66,-330.43 183.33,-335.94"/>
</g>
<!-- 126877480595872 -->
<g id="node7" class="node">
<title>126877480595872</title>
<polygon fill="aliceblue" stroke="black" points="306.5,-256.5 306.5,-302.5 360.5,-302.5 360.5,-256.5 306.5,-256.5"/>
<text text-anchor="middle" x="333.5" y="-287.3" font-family="Times,serif" font-size="14.00">Floor</text>
<polyline fill="none" stroke="black" points="306.5,-279.5 360.5,-279.5 "/>
<text text-anchor="middle" x="333.5" y="-264.3" font-family="Times,serif" font-size="14.00"> </text>
</g>
<!-- 126877480595776&#45;&gt;126877480595872 -->
<g id="edge5" class="edge">
<title>126877480595776&#45;&gt;126877480595872</title>
<path fill="none" stroke="black" d="M260.32,-333.43C275.5,-322.45 292.55,-310.12 306.37,-300.12"/>
<polygon fill="none" stroke="black" points="258.16,-330.67 252.1,-339.37 262.26,-336.34 258.16,-330.67"/>
</g>
<!-- 126877480599136 -->
<g id="node8" class="node">
<title>126877480599136</title>
<polygon fill="aliceblue" stroke="black" points="87.5,-173.5 87.5,-219.5 177.5,-219.5 177.5,-173.5 87.5,-173.5"/>
<text text-anchor="middle" x="132.5" y="-204.3" font-family="Times,serif" font-size="14.00">Plus</text>
<polyline fill="none" stroke="black" points="87.5,-196.5 177.5,-196.5 "/>
<text text-anchor="start" x="95.5" y="-181.3" font-family="Times,serif" font-size="14.00">steps: INT</text>
</g>
<!-- 126877480595776&#45;&gt;126877480599136 -->
<g id="edge6" class="edge">
<title>126877480595776&#45;&gt;126877480599136</title>
<path fill="none" stroke="black" d="M209.83,-329.8C201.42,-308.38 189.19,-279.77 175.5,-256 168.27,-243.44 158.85,-230.36 150.68,-219.76"/>
<polygon fill="none" stroke="black" points="206.66,-331.32 213.52,-339.4 213.19,-328.81 206.66,-331.32"/>
</g>
<!-- 126877480596112 -->
<g id="node9" class="node">
<title>126877480596112</title>
<polygon fill="aliceblue" stroke="black" points="199.5,-173.5 199.5,-219.5 289.5,-219.5 289.5,-173.5 199.5,-173.5"/>
<text text-anchor="middle" x="244.5" y="-204.3" font-family="Times,serif" font-size="14.00">Minus</text>
<polyline fill="none" stroke="black" points="199.5,-196.5 289.5,-196.5 "/>
<text text-anchor="start" x="207.5" y="-181.3" font-family="Times,serif" font-size="14.00">steps: INT</text>
</g>
<!-- 126877480595776&#45;&gt;126877480596112 -->
<g id="edge7" class="edge">
<title>126877480595776&#45;&gt;126877480596112</title>
<path fill="none" stroke="black" d="M226.05,-329.08C230.59,-296.66 237.46,-247.68 241.41,-219.53"/>
<polygon fill="none" stroke="black" points="222.52,-328.99 224.6,-339.38 229.46,-329.97 222.52,-328.99"/>
</g>
<!-- 126877480596352 -->
<g id="node10" class="node">
<title>126877480596352</title>
<polygon fill="aliceblue" stroke="black" points="312,-173.5 312,-219.5 411,-219.5 411,-173.5 312,-173.5"/>
<text text-anchor="middle" x="361.5" y="-204.3" font-family="Times,serif" font-size="14.00">*Clampable</text>
<polyline fill="none" stroke="black" points="312,-196.5 411,-196.5 "/>
<text text-anchor="middle" x="361.5" y="-181.3" font-family="Times,serif" font-size="14.00"> </text>
</g>
<!-- 126877480595872&#45;&gt;126877480596352 -->
<g id="edge9" class="edge">
<title>126877480595872&#45;&gt;126877480596352</title>
<path fill="none" stroke="black" d="M345.15,-244.78C346.95,-239.6 348.79,-234.27 350.56,-229.14"/>
<polygon fill="black" stroke="black" points="345.07,-245.02 346.89,-252 341.15,-256.37 339.33,-249.39 345.07,-245.02"/>
<polygon fill="black" stroke="black" points="353.9,-230.2 353.86,-219.61 347.28,-227.91 353.9,-230.2"/>
<text text-anchor="middle" x="339.86" y="-223.41" font-family="Times,serif" font-size="14.00">res </text>
</g>
<!-- 126877480596448 -->
<g id="node11" class="node">
<title>126877480596448</title>
<polygon fill="aliceblue" stroke="black" points="145,-15.5 145,-121.5 268,-121.5 268,-15.5 145,-15.5"/>
<text text-anchor="middle" x="206.5" y="-106.3" font-family="Times,serif" font-size="14.00">TimeUnitShort</text>
<polyline fill="none" stroke="black" points="145,-98.5 268,-98.5 "/>
<text text-anchor="start" x="153" y="-83.3" font-family="Times,serif" font-size="14.00">W: W</text>
<text text-anchor="start" x="153" y="-68.3" font-family="Times,serif" font-size="14.00">d: d</text>
<text text-anchor="start" x="153" y="-53.3" font-family="Times,serif" font-size="14.00">M: M</text>
<text text-anchor="start" x="153" y="-38.3" font-family="Times,serif" font-size="14.00">H: H</text>
<text text-anchor="start" x="153" y="-23.3" font-family="Times,serif" font-size="14.00">S: S</text>
</g>
<!-- 126877480599136&#45;&gt;126877480596448 -->
<g id="edge10" class="edge">
<title>126877480599136&#45;&gt;126877480596448</title>
<path fill="none" stroke="black" d="M151.69,-162.83C157.52,-152.9 164.12,-141.66 170.68,-130.5"/>
<polygon fill="black" stroke="black" points="151.64,-162.92 152.05,-170.12 145.56,-173.26 145.15,-166.06 151.64,-162.92"/>
<polygon fill="black" stroke="black" points="173.86,-131.99 175.91,-121.59 167.82,-128.44 173.86,-131.99"/>
<text text-anchor="middle" x="161.91" y="-125.39" font-family="Times,serif" font-size="14.00">res </text>
</g>
<!-- 126877480596112&#45;&gt;126877480596448 -->
<g id="edge11" class="edge">
<title>126877480596112&#45;&gt;126877480596448</title>
<path fill="none" stroke="black" d="M234.3,-161.68C231.46,-152.25 228.27,-141.69 225.11,-131.19"/>
<polygon fill="black" stroke="black" points="234.33,-161.77 239.89,-166.36 237.79,-173.26 232.23,-168.67 234.33,-161.77"/>
<polygon fill="black" stroke="black" points="228.45,-130.16 222.21,-121.59 221.75,-132.18 228.45,-130.16"/>
<text text-anchor="middle" x="208.21" y="-125.39" font-family="Times,serif" font-size="14.00">res </text>
</g>
<!-- 126877480596352&#45;&gt;126877480596448 -->
<g id="edge13" class="edge">
<title>126877480596352&#45;&gt;126877480596448</title>
<path fill="none" stroke="black" d="M320.01,-167.43C306.8,-158.09 292.3,-147.41 279.5,-137 273.61,-132.21 267.59,-127.07 261.65,-121.84"/>
<polygon fill="none" stroke="black" points="318.27,-170.49 328.47,-173.36 322.29,-164.76 318.27,-170.49"/>
</g>
<!-- 126877480596544 -->
<g id="node12" class="node">
<title>126877480596544</title>
<polygon fill="aliceblue" stroke="black" points="290.5,-38 290.5,-99 432.5,-99 432.5,-38 290.5,-38"/>
<text text-anchor="middle" x="361.5" y="-83.8" font-family="Times,serif" font-size="14.00">VariableTimeUnit</text>
<polyline fill="none" stroke="black" points="290.5,-76 432.5,-76 "/>
<text text-anchor="start" x="298.5" y="-60.8" font-family="Times,serif" font-size="14.00">Y: Y</text>
<text text-anchor="start" x="298.5" y="-45.8" font-family="Times,serif" font-size="14.00">m: m</text>
</g>
<!-- 126877480596352&#45;&gt;126877480596544 -->
<g id="edge14" class="edge">
<title>126877480596352&#45;&gt;126877480596544</title>
<path fill="none" stroke="black" d="M361.5,-163.19C361.5,-143.42 361.5,-118.33 361.5,-99.08"/>
<polygon fill="none" stroke="black" points="358,-163.26 361.5,-173.26 365,-163.26 358,-163.26"/>
</g>
<!-- 126877480596640 -->
<g id="node13" class="node">
<title>126877480596640</title>
<polygon fill="aliceblue" stroke="black" points="455,-0.5 455,-136.5 544,-136.5 544,-0.5 455,-0.5"/>
<text text-anchor="middle" x="499.5" y="-121.3" font-family="Times,serif" font-size="14.00">WeekDay</text>
<polyline fill="none" stroke="black" points="455,-113.5 544,-113.5 "/>
<text text-anchor="start" x="463" y="-98.3" font-family="Times,serif" font-size="14.00">Mon: Mon</text>
<text text-anchor="start" x="463" y="-83.3" font-family="Times,serif" font-size="14.00">Tue: Tue</text>
<text text-anchor="start" x="463" y="-68.3" font-family="Times,serif" font-size="14.00">Wed: Wed</text>
<text text-anchor="start" x="463" y="-53.3" font-family="Times,serif" font-size="14.00">Thu: Thu</text>
<text text-anchor="start" x="463" y="-38.3" font-family="Times,serif" font-size="14.00">Fri: Fri</text>
<text text-anchor="start" x="463" y="-23.3" font-family="Times,serif" font-size="14.00">Sat: Sat</text>
<text text-anchor="start" x="463" y="-8.3" font-family="Times,serif" font-size="14.00">Sun: Sun</text>
</g>
<!-- 126877480596352&#45;&gt;126877480596640 -->
<g id="edge12" class="edge">
<title>126877480596352&#45;&gt;126877480596640</title>
<path fill="none" stroke="black" d="M404.89,-167.69C417.85,-158.56 431.73,-147.94 443.5,-137 447.29,-133.48 451.06,-129.7 454.76,-125.79"/>
<polygon fill="none" stroke="black" points="402.77,-164.89 396.53,-173.45 406.75,-170.65 402.77,-164.89"/>
</g>
<!-- match_rules -->
<g id="node14" class="node">
<title>match_rules</title>
<polygon fill="aliceblue" stroke="transparent" points="674.5,-931 210.5,-931 210.5,-505 674.5,-505 674.5,-931"/>
<polygon fill="none" stroke="black" points="221.5,-903 221.5,-924 459.5,-924 459.5,-903 221.5,-903"/>
<text text-anchor="start" x="224.5" y="-910.8" font-family="Times,serif" font-weight="bold" font-size="14.00">CalendarWeekModuloMarker</text>
<polygon fill="none" stroke="black" points="461.5,-903 461.5,-924 663.5,-924 663.5,-903 461.5,-903"/>
<text text-anchor="start" x="475" y="-909.8" font-family="Times,serif" font-size="14.00">[%,@]\s*\b(CW|Cw|cw)\b</text>
<polygon fill="none" stroke="black" points="221.5,-880 221.5,-901 459.5,-901 459.5,-880 221.5,-880"/>
<text text-anchor="start" x="302" y="-887.8" font-family="Times,serif" font-weight="bold" font-size="14.00">Comment</text>
<polygon fill="none" stroke="black" points="461.5,-880 461.5,-901 663.5,-901 663.5,-880 461.5,-880"/>
<text text-anchor="start" x="493" y="-886.8" font-family="Times,serif" font-size="14.00">\/\*(.|\n)*?\*\/|\/\/.*?$</text>
<polygon fill="none" stroke="black" points="221.5,-857 221.5,-878 459.5,-878 459.5,-857 221.5,-857"/>
<text text-anchor="start" x="329" y="-864.8" font-family="Times,serif" font-weight="bold" font-size="14.00">Fri</text>
<polygon fill="none" stroke="black" points="461.5,-857 461.5,-878 663.5,-878 663.5,-857 461.5,-857"/>
<text text-anchor="start" x="540.5" y="-863.8" font-family="Times,serif" font-size="14.00">\bfri\b</text>
<polygon fill="none" stroke="black" points="221.5,-834 221.5,-855 459.5,-855 459.5,-834 221.5,-834"/>
<text text-anchor="start" x="333.5" y="-841.8" font-family="Times,serif" font-weight="bold" font-size="14.00">H</text>
<polygon fill="none" stroke="black" points="461.5,-834 461.5,-855 663.5,-855 663.5,-834 461.5,-834"/>
<text text-anchor="start" x="506.5" y="-840.8" font-family="Times,serif" font-size="14.00">([hH]ours?|H\b)</text>
<polygon fill="none" stroke="black" points="221.5,-811 221.5,-832 459.5,-832 459.5,-811 221.5,-811"/>
<text text-anchor="start" x="307.5" y="-818.8" font-family="Times,serif" font-weight="bold" font-size="14.00">ISODate</text>
<polygon fill="none" stroke="black" points="461.5,-811 461.5,-832 663.5,-832 663.5,-811 461.5,-811"/>
<text text-anchor="start" x="536.5" y="-817.8" font-family="Times,serif" font-size="14.00">\d+\S+</text>
<polygon fill="none" stroke="black" points="221.5,-788 221.5,-809 459.5,-809 459.5,-788 221.5,-788"/>
<text text-anchor="start" x="332.5" y="-795.8" font-family="Times,serif" font-weight="bold" font-size="14.00">M</text>
<polygon fill="none" stroke="black" points="461.5,-788 461.5,-809 663.5,-809 663.5,-788 461.5,-788"/>
<text text-anchor="start" x="496" y="-794.8" font-family="Times,serif" font-size="14.00">([mM]inutes?|M\b)</text>
<polygon fill="none" stroke="black" points="221.5,-765 221.5,-786 459.5,-786 459.5,-765 221.5,-765"/>
<text text-anchor="start" x="322.5" y="-772.8" font-family="Times,serif" font-weight="bold" font-size="14.00">Mon</text>
<polygon fill="none" stroke="black" points="461.5,-765 461.5,-786 663.5,-786 663.5,-765 461.5,-765"/>
<text text-anchor="start" x="533.5" y="-771.8" font-family="Times,serif" font-size="14.00">\bmon\b</text>
<polygon fill="none" stroke="black" points="221.5,-742 221.5,-763 459.5,-763 459.5,-742 221.5,-742"/>
<text text-anchor="start" x="301" y="-749.8" font-family="Times,serif" font-weight="bold" font-size="14.00">NaiveNow</text>
<polygon fill="none" stroke="black" points="461.5,-742 461.5,-763 663.5,-763 663.5,-742 461.5,-742"/>
<text text-anchor="start" x="547.5" y="-748.8" font-family="Times,serif" font-size="14.00">now</text>
<polygon fill="none" stroke="black" points="221.5,-719 221.5,-740 459.5,-740 459.5,-719 221.5,-719"/>
<text text-anchor="start" x="335.5" y="-726.8" font-family="Times,serif" font-weight="bold" font-size="14.00">S</text>
<polygon fill="none" stroke="black" points="461.5,-719 461.5,-740 663.5,-740 663.5,-719 461.5,-719"/>
<text text-anchor="start" x="473.5" y="-725.8" font-family="Times,serif" font-size="14.00">(?!sat$)([sS]econds?|S\b)</text>
<polygon fill="none" stroke="black" points="221.5,-696 221.5,-717 459.5,-717 459.5,-696 221.5,-696"/>
<text text-anchor="start" x="327.5" y="-703.8" font-family="Times,serif" font-weight="bold" font-size="14.00">Sat</text>
<polygon fill="none" stroke="black" points="461.5,-696 461.5,-717 663.5,-717 663.5,-696 461.5,-696"/>
<text text-anchor="start" x="538" y="-702.8" font-family="Times,serif" font-size="14.00">\bsat\b</text>
<polygon fill="none" stroke="black" points="221.5,-673 221.5,-694 459.5,-694 459.5,-673 221.5,-673"/>
<text text-anchor="start" x="325" y="-680.8" font-family="Times,serif" font-weight="bold" font-size="14.00">Sun</text>
<polygon fill="none" stroke="black" points="461.5,-673 461.5,-694 663.5,-694 663.5,-673 461.5,-673"/>
<text text-anchor="start" x="536" y="-679.8" font-family="Times,serif" font-size="14.00">\bsun\b</text>
<polygon fill="none" stroke="black" points="221.5,-650 221.5,-671 459.5,-671 459.5,-650 221.5,-650"/>
<text text-anchor="start" x="324.5" y="-657.8" font-family="Times,serif" font-weight="bold" font-size="14.00">Thu</text>
<polygon fill="none" stroke="black" points="461.5,-650 461.5,-671 663.5,-671 663.5,-650 461.5,-650"/>
<text text-anchor="start" x="536.5" y="-656.8" font-family="Times,serif" font-size="14.00">\bthu\b</text>
<polygon fill="none" stroke="black" points="221.5,-627 221.5,-648 459.5,-648 459.5,-627 221.5,-627"/>
<text text-anchor="start" x="326" y="-634.8" font-family="Times,serif" font-weight="bold" font-size="14.00">Tue</text>
<polygon fill="none" stroke="black" points="461.5,-627 461.5,-648 663.5,-648 663.5,-627 461.5,-627"/>
<text text-anchor="start" x="537" y="-633.8" font-family="Times,serif" font-size="14.00">\btue\b</text>
<polygon fill="none" stroke="black" points="221.5,-604 221.5,-625 459.5,-625 459.5,-604 221.5,-604"/>
<text text-anchor="start" x="332.5" y="-611.8" font-family="Times,serif" font-weight="bold" font-size="14.00">W</text>
<polygon fill="none" stroke="black" points="461.5,-604 461.5,-625 663.5,-625 663.5,-604 461.5,-604"/>
<text text-anchor="start" x="496" y="-610.8" font-family="Times,serif" font-size="14.00">\b([wW]eeks?|W)\b</text>
<polygon fill="none" stroke="black" points="221.5,-581 221.5,-602 459.5,-602 459.5,-581 221.5,-581"/>
<text text-anchor="start" x="323.5" y="-588.8" font-family="Times,serif" font-weight="bold" font-size="14.00">Wed</text>
<polygon fill="none" stroke="black" points="461.5,-581 461.5,-602 663.5,-602 663.5,-581 461.5,-581"/>
<text text-anchor="start" x="534" y="-587.8" font-family="Times,serif" font-size="14.00">\bwed\b</text>
<polygon fill="none" stroke="black" points="221.5,-558 221.5,-579 459.5,-579 459.5,-558 221.5,-558"/>
<text text-anchor="start" x="335.5" y="-565.8" font-family="Times,serif" font-weight="bold" font-size="14.00">Y</text>
<polygon fill="none" stroke="black" points="461.5,-558 461.5,-579 663.5,-579 663.5,-558 461.5,-558"/>
<text text-anchor="start" x="510.5" y="-564.8" font-family="Times,serif" font-size="14.00">([Yy]ears?|Y\b)</text>
<polygon fill="none" stroke="black" points="221.5,-535 221.5,-556 459.5,-556 459.5,-535 221.5,-535"/>
<text text-anchor="start" x="335.5" y="-542.8" font-family="Times,serif" font-weight="bold" font-size="14.00">d</text>
<polygon fill="none" stroke="black" points="461.5,-535 461.5,-556 663.5,-556 663.5,-535 461.5,-535"/>
<text text-anchor="start" x="512.5" y="-541.8" font-family="Times,serif" font-size="14.00">([dD]ays?|d\b)</text>
<polygon fill="none" stroke="black" points="221.5,-512 221.5,-533 459.5,-533 459.5,-512 221.5,-512"/>
<text text-anchor="start" x="332.5" y="-519.8" font-family="Times,serif" font-weight="bold" font-size="14.00">m</text>
<polygon fill="none" stroke="black" points="461.5,-512 461.5,-533 663.5,-533 663.5,-512 461.5,-512"/>
<text text-anchor="start" x="464.5" y="-518.8" font-family="Times,serif" font-size="14.00">(?!mon\b)([mM]onths?|m\b)</text>
<polygon fill="none" stroke="black" points="218.5,-509 218.5,-927 666.5,-927 666.5,-509 218.5,-509"/>
</g>
</g>
</svg>
