<?xml version="1.0" encoding="UTF-8" standalone="no"?>
<!DOCTYPE svg PUBLIC "-//W3C//DTD SVG 1.1//EN"
 "http://www.w3.org/Graphics/SVG/1.1/DTD/svg11.dtd">
<!-- Generated by graphviz version 2.43.0 (0)
 -->
<!-- Title: textX Pages: 1 -->
<svg width="530pt" height="916pt"
 viewBox="0.00 0.00 530.00 916.00" xmlns="http://www.w3.org/2000/svg" xmlns:xlink="http://www.w3.org/1999/xlink">
<g id="graph0" class="graph" transform="scale(1 1) rotate(0) translate(4 912)">
<title>textX</title>
<polygon fill="white" stroke="transparent" points="-4,4 -4,-912 526,-912 526,4 -4,4"/>
<!-- 126441412182864 -->
<g id="node1" class="node">
<title>126441412182864</title>
<polygon fill="aliceblue" stroke="black" points="100.5,-683.5 100.5,-729.5 188.5,-729.5 188.5,-683.5 100.5,-683.5"/>
<text text-anchor="middle" x="144.5" y="-714.3" font-family="Times,serif" font-size="14.00">DateMath</text>
<polyline fill="none" stroke="black" points="100.5,-706.5 188.5,-706.5 "/>
<text text-anchor="middle" x="144.5" y="-691.3" font-family="Times,serif" font-size="14.00"> </text>
</g>
<!-- 126441409465040 -->
<g id="node2" class="node">
<title>126441409465040</title>
<polygon fill="aliceblue" stroke="black" points="0,-422.5 0,-468.5 137,-468.5 137,-422.5 0,-422.5"/>
<text text-anchor="middle" x="68.5" y="-453.3" font-family="Times,serif" font-size="14.00">Anchor</text>
<polyline fill="none" stroke="black" points="0,-445.5 137,-445.5 "/>
<text text-anchor="start" x="8" y="-430.3" font-family="Times,serif" font-size="14.00">isodate: ISODate</text>
</g>
<!-- 126441412182864&#45;&gt;126441409465040 -->
<g id="edge1" class="edge">
<title>126441412182864&#45;&gt;126441409465040</title>
<path fill="none" stroke="black" d="M134.61,-671.79C119.85,-621.5 92.26,-527.47 77.83,-478.31"/>
<polygon fill="black" stroke="black" points="134.64,-671.9 140.17,-676.53 138.02,-683.42 132.49,-678.79 134.64,-671.9"/>
<polygon fill="black" stroke="black" points="81.14,-477.14 74.96,-468.53 74.42,-479.11 81.14,-477.14"/>
<text text-anchor="middle" x="47.96" y="-472.33" font-family="Times,serif" font-size="14.00">anchor </text>
</g>
<!-- 126441409470464 -->
<g id="node3" class="node">
<title>126441409470464</title>
<polygon fill="aliceblue" stroke="black" points="159,-422.5 159,-468.5 284,-468.5 284,-422.5 159,-422.5"/>
<text text-anchor="middle" x="221.5" y="-453.3" font-family="Times,serif" font-size="14.00">DateMathTerm</text>
<polyline fill="none" stroke="black" points="159,-445.5 284,-445.5 "/>
<text text-anchor="middle" x="221.5" y="-430.3" font-family="Times,serif" font-size="14.00"> </text>
</g>
<!-- 126441412182864&#45;&gt;126441409470464 -->
<g id="edge2" class="edge">
<title>126441412182864&#45;&gt;126441409470464</title>
<path fill="none" stroke="black" d="M152.78,-671.63C162.81,-631.53 180.71,-562.9 199.5,-505 202.37,-496.15 205.79,-486.67 209.06,-477.97"/>
<polygon fill="black" stroke="black" points="152.76,-671.7 155.2,-678.49 149.87,-683.35 147.43,-676.56 152.76,-671.7"/>
<polygon fill="black" stroke="black" points="212.36,-479.14 212.66,-468.55 205.82,-476.64 212.36,-479.14"/>
<text text-anchor="middle" x="285.66" y="-472.35" font-family="Times,serif" font-size="14.00">date_math_term 0..*</text>
</g>
<!-- 126441411434624 -->
<g id="node4" class="node">
<title>126441411434624</title>
<polygon fill="aliceblue" stroke="black" points="10,-339.5 10,-385.5 127,-385.5 127,-339.5 10,-339.5"/>
<text text-anchor="middle" x="68.5" y="-370.3" font-family="Times,serif" font-size="14.00">TimezoneNow</text>
<polyline fill="none" stroke="black" points="10,-362.5 127,-362.5 "/>
<text text-anchor="start" x="18" y="-347.3" font-family="Times,serif" font-size="14.00">tz: STRING</text>
</g>
<!-- 126441409465040&#45;&gt;126441411434624 -->
<g id="edge3" class="edge">
<title>126441409465040&#45;&gt;126441411434624</title>
<path fill="none" stroke="black" d="M68.5,-410.2C68.5,-405.39 68.5,-400.45 68.5,-395.68"/>
<polygon fill="black" stroke="black" points="68.5,-410.37 72.5,-416.37 68.5,-422.37 64.5,-416.37 68.5,-410.37"/>
<polygon fill="black" stroke="black" points="72,-395.61 68.5,-385.61 65,-395.61 72,-395.61"/>
<text text-anchor="middle" x="44.5" y="-389.41" font-family="Times,serif" font-size="14.00">tznow </text>
</g>
<!-- 126441409472144 -->
<g id="node5" class="node">
<title>126441409472144</title>
<polygon fill="aliceblue" stroke="black" points="172.5,-339.5 172.5,-385.5 270.5,-385.5 270.5,-339.5 172.5,-339.5"/>
<text text-anchor="middle" x="221.5" y="-370.3" font-family="Times,serif" font-size="14.00">*Statement</text>
<polyline fill="none" stroke="black" points="172.5,-362.5 270.5,-362.5 "/>
<text text-anchor="middle" x="221.5" y="-347.3" font-family="Times,serif" font-size="14.00"> </text>
</g>
<!-- 126441409470464&#45;&gt;126441409472144 -->
<g id="edge4" class="edge">
<title>126441409470464&#45;&gt;126441409472144</title>
<path fill="none" stroke="black" d="M221.5,-410.2C221.5,-405.39 221.5,-400.45 221.5,-395.68"/>
<polygon fill="black" stroke="black" points="221.5,-410.37 225.5,-416.37 221.5,-422.37 217.5,-416.37 221.5,-410.37"/>
<polygon fill="black" stroke="black" points="225,-395.61 221.5,-385.61 218,-395.61 225,-395.61"/>
<text text-anchor="middle" x="182.5" y="-389.41" font-family="Times,serif" font-size="14.00">statement </text>
</g>
<!-- 126441409472384 -->
<g id="node6" class="node">
<title>126441409472384</title>
<polygon fill="aliceblue" stroke="black" points="105.5,-256.5 105.5,-302.5 159.5,-302.5 159.5,-256.5 105.5,-256.5"/>
<text text-anchor="middle" x="132.5" y="-287.3" font-family="Times,serif" font-size="14.00">Floor</text>
<polyline fill="none" stroke="black" points="105.5,-279.5 159.5,-279.5 "/>
<text text-anchor="middle" x="132.5" y="-264.3" font-family="Times,serif" font-size="14.00"> </text>
</g>
<!-- 126441409472144&#45;&gt;126441409472384 -->
<g id="edge5" class="edge">
<title>126441409472144&#45;&gt;126441409472384</title>
<path fill="none" stroke="black" d="M189.55,-332.42C178.76,-322.6 166.89,-311.8 156.79,-302.61"/>
<polygon fill="none" stroke="black" points="187.43,-335.22 197.18,-339.37 192.14,-330.05 187.43,-335.22"/>
</g>
<!-- 126441409472336 -->
<g id="node7" class="node">
<title>126441409472336</title>
<polygon fill="aliceblue" stroke="black" points="176.5,-173.5 176.5,-219.5 266.5,-219.5 266.5,-173.5 176.5,-173.5"/>
<text text-anchor="middle" x="221.5" y="-204.3" font-family="Times,serif" font-size="14.00">Plus</text>
<polyline fill="none" stroke="black" points="176.5,-196.5 266.5,-196.5 "/>
<text text-anchor="start" x="184.5" y="-181.3" font-family="Times,serif" font-size="14.00">steps: INT</text>
</g>
<!-- 126441409472144&#45;&gt;126441409472336 -->
<g id="edge6" class="edge">
<title>126441409472144&#45;&gt;126441409472336</title>
<path fill="none" stroke="black" d="M221.5,-329.08C221.5,-296.66 221.5,-247.68 221.5,-219.53"/>
<polygon fill="none" stroke="black" points="218,-329.38 221.5,-339.38 225,-329.38 218,-329.38"/>
</g>
<!-- 126441409472288 -->
<g id="node8" class="node">
<title>126441409472288</title>
<polygon fill="aliceblue" stroke="black" points="255.5,-256.5 255.5,-302.5 345.5,-302.5 345.5,-256.5 255.5,-256.5"/>
<text text-anchor="middle" x="300.5" y="-287.3" font-family="Times,serif" font-size="14.00">Minus</text>
<polyline fill="none" stroke="black" points="255.5,-279.5 345.5,-279.5 "/>
<text text-anchor="start" x="263.5" y="-264.3" font-family="Times,serif" font-size="14.00">steps: INT</text>
</g>
<!-- 126441409472144&#45;&gt;126441409472288 -->
<g id="edge7" class="edge">
<title>126441409472144&#45;&gt;126441409472288</title>
<path fill="none" stroke="black" d="M250.14,-332.14C259.64,-322.39 270.06,-311.71 278.94,-302.61"/>
<polygon fill="none" stroke="black" points="247.56,-329.76 243.09,-339.37 252.57,-334.65 247.56,-329.76"/>
</g>
<!-- 126441409472576 -->
<g id="node9" class="node">
<title>126441409472576</title>
<polygon fill="aliceblue" stroke="black" points="55,-173.5 55,-219.5 154,-219.5 154,-173.5 55,-173.5"/>
<text text-anchor="middle" x="104.5" y="-204.3" font-family="Times,serif" font-size="14.00">*Clampable</text>
<polyline fill="none" stroke="black" points="55,-196.5 154,-196.5 "/>
<text text-anchor="middle" x="104.5" y="-181.3" font-family="Times,serif" font-size="14.00"> </text>
</g>
<!-- 126441409472384&#45;&gt;126441409472576 -->
<g id="edge8" class="edge">
<title>126441409472384&#45;&gt;126441409472576</title>
<path fill="none" stroke="black" d="M120.85,-244.78C119.05,-239.6 117.21,-234.27 115.44,-229.14"/>
<polygon fill="black" stroke="black" points="120.93,-245.02 126.67,-249.39 124.85,-256.37 119.11,-252 120.93,-245.02"/>
<polygon fill="black" stroke="black" points="118.72,-227.91 112.14,-219.61 112.1,-230.2 118.72,-227.91"/>
<text text-anchor="middle" x="98.14" y="-223.41" font-family="Times,serif" font-size="14.00">res </text>
</g>
<!-- 126441409472192 -->
<g id="node10" class="node">
<title>126441409472192</title>
<polygon fill="aliceblue" stroke="black" points="166,-0.5 166,-136.5 289,-136.5 289,-0.5 166,-0.5"/>
<text text-anchor="middle" x="227.5" y="-121.3" font-family="Times,serif" font-size="14.00">TimeUnitShort</text>
<polyline fill="none" stroke="black" points="166,-113.5 289,-113.5 "/>
<text text-anchor="start" x="174" y="-98.3" font-family="Times,serif" font-size="14.00">Y: Y</text>
<text text-anchor="start" x="174" y="-83.3" font-family="Times,serif" font-size="14.00">m: m</text>
<text text-anchor="start" x="174" y="-68.3" font-family="Times,serif" font-size="14.00">W: W</text>
<text text-anchor="start" x="174" y="-53.3" font-family="Times,serif" font-size="14.00">d: d</text>
<text text-anchor="start" x="174" y="-38.3" font-family="Times,serif" font-size="14.00">M: M</text>
<text text-anchor="start" x="174" y="-23.3" font-family="Times,serif" font-size="14.00">H: H</text>
<text text-anchor="start" x="174" y="-8.3" font-family="Times,serif" font-size="14.00">S: S</text>
</g>
<!-- 126441409472336&#45;&gt;126441409472192 -->
<g id="edge9" class="edge">
<title>126441409472336&#45;&gt;126441409472192</title>
<path fill="none" stroke="black" d="M223.13,-161.17C223.35,-156.63 223.58,-151.83 223.81,-146.91"/>
<polygon fill="black" stroke="black" points="223.13,-161.28 226.84,-167.46 222.56,-173.26 218.85,-167.08 223.13,-161.28"/>
<polygon fill="black" stroke="black" points="227.32,-146.84 224.3,-136.68 220.33,-146.5 227.32,-146.84"/>
<text text-anchor="middle" x="210.3" y="-140.48" font-family="Times,serif" font-size="14.00">res </text>
</g>
<!-- 126441409472288&#45;&gt;126441409472192 -->
<g id="edge10" class="edge">
<title>126441409472288&#45;&gt;126441409472192</title>
<path fill="none" stroke="black" d="M295.17,-244.43C291.39,-223.49 285.54,-196.3 277.5,-173 274.43,-164.11 270.8,-154.99 266.91,-146.01"/>
<polygon fill="black" stroke="black" points="295.18,-244.44 300.14,-249.67 297.22,-256.26 292.26,-251.03 295.18,-244.44"/>
<polygon fill="black" stroke="black" points="270.05,-144.45 262.78,-136.74 263.65,-147.3 270.05,-144.45"/>
<text text-anchor="middle" x="276.78" y="-140.54" font-family="Times,serif" font-size="14.00">res </text>
</g>
<!-- 126441409472576&#45;&gt;126441409472192 -->
<g id="edge12" class="edge">
<title>126441409472576&#45;&gt;126441409472192</title>
<path fill="none" stroke="black" d="M133.37,-165.93C143.17,-155.89 154.52,-144.26 165.87,-132.63"/>
<polygon fill="none" stroke="black" points="130.69,-163.66 126.21,-173.26 135.7,-168.55 130.69,-163.66"/>
</g>
<!-- 126441409471808 -->
<g id="node11" class="node">
<title>126441409471808</title>
<polygon fill="aliceblue" stroke="black" points="55,-0.5 55,-136.5 144,-136.5 144,-0.5 55,-0.5"/>
<text text-anchor="middle" x="99.5" y="-121.3" font-family="Times,serif" font-size="14.00">WeekDay</text>
<polyline fill="none" stroke="black" points="55,-113.5 144,-113.5 "/>
<text text-anchor="start" x="63" y="-98.3" font-family="Times,serif" font-size="14.00">Mon: Mon</text>
<text text-anchor="start" x="63" y="-83.3" font-family="Times,serif" font-size="14.00">Tue: Tue</text>
<text text-anchor="start" x="63" y="-68.3" font-family="Times,serif" font-size="14.00">Wed: Wed</text>
<text text-anchor="start" x="63" y="-53.3" font-family="Times,serif" font-size="14.00">Thu: Thu</text>
<text text-anchor="start" x="63" y="-38.3" font-family="Times,serif" font-size="14.00">Fri: Fri</text>
<text text-anchor="start" x="63" y="-23.3" font-family="Times,serif" font-size="14.00">Sat: Sat</text>
<text text-anchor="start" x="63" y="-8.3" font-family="Times,serif" font-size="14.00">Sun: Sun</text>
</g>
<!-- 126441409472576&#45;&gt;126441409471808 -->
<g id="edge11" class="edge">
<title>126441409472576&#45;&gt;126441409471808</title>
<path fill="none" stroke="black" d="M103.21,-163.12C102.89,-154.95 102.53,-145.87 102.17,-136.68"/>
<polygon fill="none" stroke="black" points="99.72,-163.41 103.62,-173.26 106.72,-163.13 99.72,-163.41"/>
</g>
<!-- match_rules -->
<g id="node12" class="node">
<title>match_rules</title>
<polygon fill="aliceblue" stroke="transparent" points="522,-908 211,-908 211,-505 522,-505 522,-908"/>
<polygon fill="none" stroke="black" points="222.5,-879.5 222.5,-900.5 307.5,-900.5 307.5,-879.5 222.5,-879.5"/>
<text text-anchor="start" x="226.5" y="-887.3" font-family="Times,serif" font-weight="bold" font-size="14.00">Comment</text>
<polygon fill="none" stroke="black" points="309.5,-879.5 309.5,-900.5 511.5,-900.5 511.5,-879.5 309.5,-879.5"/>
<text text-anchor="start" x="341" y="-886.3" font-family="Times,serif" font-size="14.00">\/\*(.|\n)*?\*\/|\/\/.*?$</text>
<polygon fill="none" stroke="black" points="222.5,-856.5 222.5,-877.5 307.5,-877.5 307.5,-856.5 222.5,-856.5"/>
<text text-anchor="start" x="253.5" y="-864.3" font-family="Times,serif" font-weight="bold" font-size="14.00">Fri</text>
<polygon fill="none" stroke="black" points="309.5,-856.5 309.5,-877.5 511.5,-877.5 511.5,-856.5 309.5,-856.5"/>
<text text-anchor="start" x="388.5" y="-863.3" font-family="Times,serif" font-size="14.00">\bfri\b</text>
<polygon fill="none" stroke="black" points="222.5,-833.5 222.5,-854.5 307.5,-854.5 307.5,-833.5 222.5,-833.5"/>
<text text-anchor="start" x="258" y="-841.3" font-family="Times,serif" font-weight="bold" font-size="14.00">H</text>
<polygon fill="none" stroke="black" points="309.5,-833.5 309.5,-854.5 511.5,-854.5 511.5,-833.5 309.5,-833.5"/>
<text text-anchor="start" x="354.5" y="-840.3" font-family="Times,serif" font-size="14.00">([hH]ours?|H\b)</text>
<polygon fill="none" stroke="black" points="222.5,-810.5 222.5,-831.5 307.5,-831.5 307.5,-810.5 222.5,-810.5"/>
<text text-anchor="start" x="232" y="-818.3" font-family="Times,serif" font-weight="bold" font-size="14.00">ISODate</text>
<polygon fill="none" stroke="black" points="309.5,-810.5 309.5,-831.5 511.5,-831.5 511.5,-810.5 309.5,-810.5"/>
<text text-anchor="start" x="384.5" y="-817.3" font-family="Times,serif" font-size="14.00">\d+\S+</text>
<polygon fill="none" stroke="black" points="222.5,-787.5 222.5,-808.5 307.5,-808.5 307.5,-787.5 222.5,-787.5"/>
<text text-anchor="start" x="257" y="-795.3" font-family="Times,serif" font-weight="bold" font-size="14.00">M</text>
<polygon fill="none" stroke="black" points="309.5,-787.5 309.5,-808.5 511.5,-808.5 511.5,-787.5 309.5,-787.5"/>
<text text-anchor="start" x="344" y="-794.3" font-family="Times,serif" font-size="14.00">([mM]inutes?|M\b)</text>
<polygon fill="none" stroke="black" points="222.5,-764.5 222.5,-785.5 307.5,-785.5 307.5,-764.5 222.5,-764.5"/>
<text text-anchor="start" x="247" y="-772.3" font-family="Times,serif" font-weight="bold" font-size="14.00">Mon</text>
<polygon fill="none" stroke="black" points="309.5,-764.5 309.5,-785.5 511.5,-785.5 511.5,-764.5 309.5,-764.5"/>
<text text-anchor="start" x="381.5" y="-771.3" font-family="Times,serif" font-size="14.00">\bmon\b</text>
<polygon fill="none" stroke="black" points="222.5,-741.5 222.5,-762.5 307.5,-762.5 307.5,-741.5 222.5,-741.5"/>
<text text-anchor="start" x="225.5" y="-749.3" font-family="Times,serif" font-weight="bold" font-size="14.00">NaiveNow</text>
<polygon fill="none" stroke="black" points="309.5,-741.5 309.5,-762.5 511.5,-762.5 511.5,-741.5 309.5,-741.5"/>
<text text-anchor="start" x="395.5" y="-748.3" font-family="Times,serif" font-size="14.00">now</text>
<polygon fill="none" stroke="black" points="222.5,-718.5 222.5,-739.5 307.5,-739.5 307.5,-718.5 222.5,-718.5"/>
<text text-anchor="start" x="260" y="-726.3" font-family="Times,serif" font-weight="bold" font-size="14.00">S</text>
<polygon fill="none" stroke="black" points="309.5,-718.5 309.5,-739.5 511.5,-739.5 511.5,-718.5 309.5,-718.5"/>
<text text-anchor="start" x="321.5" y="-725.3" font-family="Times,serif" font-size="14.00">(?!sat$)([sS]econds?|S\b)</text>
<polygon fill="none" stroke="black" points="222.5,-695.5 222.5,-716.5 307.5,-716.5 307.5,-695.5 222.5,-695.5"/>
<text text-anchor="start" x="252" y="-703.3" font-family="Times,serif" font-weight="bold" font-size="14.00">Sat</text>
<polygon fill="none" stroke="black" points="309.5,-695.5 309.5,-716.5 511.5,-716.5 511.5,-695.5 309.5,-695.5"/>
<text text-anchor="start" x="386" y="-702.3" font-family="Times,serif" font-size="14.00">\bsat\b</text>
<polygon fill="none" stroke="black" points="222.5,-672.5 222.5,-693.5 307.5,-693.5 307.5,-672.5 222.5,-672.5"/>
<text text-anchor="start" x="249.5" y="-680.3" font-family="Times,serif" font-weight="bold" font-size="14.00">Sun</text>
<polygon fill="none" stroke="black" points="309.5,-672.5 309.5,-693.5 511.5,-693.5 511.5,-672.5 309.5,-672.5"/>
<text text-anchor="start" x="384" y="-679.3" font-family="Times,serif" font-size="14.00">\bsun\b</text>
<polygon fill="none" stroke="black" points="222.5,-649.5 222.5,-670.5 307.5,-670.5 307.5,-649.5 222.5,-649.5"/>
<text text-anchor="start" x="249" y="-657.3" font-family="Times,serif" font-weight="bold" font-size="14.00">Thu</text>
<polygon fill="none" stroke="black" points="309.5,-649.5 309.5,-670.5 511.5,-670.5 511.5,-649.5 309.5,-649.5"/>
<text text-anchor="start" x="384.5" y="-656.3" font-family="Times,serif" font-size="14.00">\bthu\b</text>
<polygon fill="none" stroke="black" points="222.5,-626.5 222.5,-647.5 307.5,-647.5 307.5,-626.5 222.5,-626.5"/>
<text text-anchor="start" x="250.5" y="-634.3" font-family="Times,serif" font-weight="bold" font-size="14.00">Tue</text>
<polygon fill="none" stroke="black" points="309.5,-626.5 309.5,-647.5 511.5,-647.5 511.5,-626.5 309.5,-626.5"/>
<text text-anchor="start" x="385" y="-633.3" font-family="Times,serif" font-size="14.00">\btue\b</text>
<polygon fill="none" stroke="black" points="222.5,-603.5 222.5,-624.5 307.5,-624.5 307.5,-603.5 222.5,-603.5"/>
<text text-anchor="start" x="257" y="-611.3" font-family="Times,serif" font-weight="bold" font-size="14.00">W</text>
<polygon fill="none" stroke="black" points="309.5,-603.5 309.5,-624.5 511.5,-624.5 511.5,-603.5 309.5,-603.5"/>
<text text-anchor="start" x="350.5" y="-610.3" font-family="Times,serif" font-size="14.00">([wW]eeks?|W\b)</text>
<polygon fill="none" stroke="black" points="222.5,-580.5 222.5,-601.5 307.5,-601.5 307.5,-580.5 222.5,-580.5"/>
<text text-anchor="start" x="248" y="-588.3" font-family="Times,serif" font-weight="bold" font-size="14.00">Wed</text>
<polygon fill="none" stroke="black" points="309.5,-580.5 309.5,-601.5 511.5,-601.5 511.5,-580.5 309.5,-580.5"/>
<text text-anchor="start" x="382" y="-587.3" font-family="Times,serif" font-size="14.00">\bwed\b</text>
<polygon fill="none" stroke="black" points="222.5,-557.5 222.5,-578.5 307.5,-578.5 307.5,-557.5 222.5,-557.5"/>
<text text-anchor="start" x="260" y="-565.3" font-family="Times,serif" font-weight="bold" font-size="14.00">Y</text>
<polygon fill="none" stroke="black" points="309.5,-557.5 309.5,-578.5 511.5,-578.5 511.5,-557.5 309.5,-557.5"/>
<text text-anchor="start" x="358.5" y="-564.3" font-family="Times,serif" font-size="14.00">([Yy]ears?|Y\b)</text>
<polygon fill="none" stroke="black" points="222.5,-534.5 222.5,-555.5 307.5,-555.5 307.5,-534.5 222.5,-534.5"/>
<text text-anchor="start" x="260" y="-542.3" font-family="Times,serif" font-weight="bold" font-size="14.00">d</text>
<polygon fill="none" stroke="black" points="309.5,-534.5 309.5,-555.5 511.5,-555.5 511.5,-534.5 309.5,-534.5"/>
<text text-anchor="start" x="360.5" y="-541.3" font-family="Times,serif" font-size="14.00">([dD]ays?|d\b)</text>
<polygon fill="none" stroke="black" points="222.5,-511.5 222.5,-532.5 307.5,-532.5 307.5,-511.5 222.5,-511.5"/>
<text text-anchor="start" x="257" y="-519.3" font-family="Times,serif" font-weight="bold" font-size="14.00">m</text>
<polygon fill="none" stroke="black" points="309.5,-511.5 309.5,-532.5 511.5,-532.5 511.5,-511.5 309.5,-511.5"/>
<text text-anchor="start" x="312.5" y="-518.3" font-family="Times,serif" font-size="14.00">(?!mon\b)([mM]onths?|m\b)</text>
<polygon fill="none" stroke="black" points="219,-509 219,-904 514,-904 514,-509 219,-509"/>
</g>
</g>
</svg>
