<?xml version="1.0" encoding="UTF-8" standalone="no"?>
<!DOCTYPE svg PUBLIC "-//W3C//DTD SVG 1.1//EN"
 "http://www.w3.org/Graphics/SVG/1.1/DTD/svg11.dtd">
<!-- Generated by graphviz version 2.43.0 (0)
 -->
<!-- Title: textX Pages: 1 -->
<svg width="699pt" height="962pt"
 viewBox="0.00 0.00 699.00 962.00" xmlns="http://www.w3.org/2000/svg" xmlns:xlink="http://www.w3.org/1999/xlink">
<g id="graph0" class="graph" transform="scale(1 1) rotate(0) translate(4 958)">
<title>textX</title>
<polygon fill="white" stroke="transparent" points="-4,4 -4,-958 695,-958 695,4 -4,4"/>
<!-- 130863800059616 -->
<g id="node1" class="node">
<title>130863800059616</title>
<polygon fill="aliceblue" stroke="black" points="117,-706.5 117,-752.5 205,-752.5 205,-706.5 117,-706.5"/>
<text text-anchor="middle" x="161" y="-737.3" font-family="Times,serif" font-size="14.00">DateMath</text>
<polyline fill="none" stroke="black" points="117,-729.5 205,-729.5 "/>
<text text-anchor="middle" x="161" y="-714.3" font-family="Times,serif" font-size="14.00"> </text>
</g>
<!-- 130863800059280 -->
<g id="node2" class="node">
<title>130863800059280</title>
<polygon fill="aliceblue" stroke="black" points="16.5,-422.5 16.5,-468.5 153.5,-468.5 153.5,-422.5 16.5,-422.5"/>
<text text-anchor="middle" x="85" y="-453.3" font-family="Times,serif" font-size="14.00">Anchor</text>
<polyline fill="none" stroke="black" points="16.5,-445.5 153.5,-445.5 "/>
<text text-anchor="start" x="24.5" y="-430.3" font-family="Times,serif" font-size="14.00">isodate: ISODate</text>
</g>
<!-- 130863800059616&#45;&gt;130863800059280 -->
<g id="edge1" class="edge">
<title>130863800059616&#45;&gt;130863800059280</title>
<path fill="none" stroke="black" d="M151.84,-694.49C137.03,-639.57 108.07,-532.1 93.62,-478.5"/>
<polygon fill="black" stroke="black" points="151.91,-694.79 157.34,-699.54 155.04,-706.37 149.61,-701.62 151.91,-694.79"/>
<polygon fill="black" stroke="black" points="96.92,-477.27 90.94,-468.53 90.16,-479.09 96.92,-477.27"/>
<text text-anchor="middle" x="63.94" y="-472.33" font-family="Times,serif" font-size="14.00">anchor </text>
</g>
<!-- 130863799758160 -->
<g id="node3" class="node">
<title>130863799758160</title>
<polygon fill="aliceblue" stroke="black" points="175.5,-422.5 175.5,-468.5 300.5,-468.5 300.5,-422.5 175.5,-422.5"/>
<text text-anchor="middle" x="238" y="-453.3" font-family="Times,serif" font-size="14.00">DateMathTerm</text>
<polyline fill="none" stroke="black" points="175.5,-445.5 300.5,-445.5 "/>
<text text-anchor="middle" x="238" y="-430.3" font-family="Times,serif" font-size="14.00"> </text>
</g>
<!-- 130863800059616&#45;&gt;130863799758160 -->
<g id="edge2" class="edge">
<title>130863800059616&#45;&gt;130863799758160</title>
<path fill="none" stroke="black" d="M168.08,-694.37C177.53,-650.24 195.49,-571.18 216,-505 218.75,-496.11 222.13,-486.62 225.4,-477.92"/>
<polygon fill="black" stroke="black" points="168.02,-694.63 170.69,-701.33 165.53,-706.37 162.87,-699.67 168.02,-694.63"/>
<polygon fill="black" stroke="black" points="228.7,-479.1 229.02,-468.51 222.17,-476.59 228.7,-479.1"/>
<text text-anchor="middle" x="302.02" y="-472.31" font-family="Times,serif" font-size="14.00">date_math_term 0..*</text>
</g>
<!-- 130863799762192 -->
<g id="node4" class="node">
<title>130863799762192</title>
<polygon fill="aliceblue" stroke="black" points="26.5,-339.5 26.5,-385.5 143.5,-385.5 143.5,-339.5 26.5,-339.5"/>
<text text-anchor="middle" x="85" y="-370.3" font-family="Times,serif" font-size="14.00">TimezoneNow</text>
<polyline fill="none" stroke="black" points="26.5,-362.5 143.5,-362.5 "/>
<text text-anchor="start" x="34.5" y="-347.3" font-family="Times,serif" font-size="14.00">tz: STRING</text>
</g>
<!-- 130863800059280&#45;&gt;130863799762192 -->
<g id="edge3" class="edge">
<title>130863800059280&#45;&gt;130863799762192</title>
<path fill="none" stroke="black" d="M85,-410.2C85,-405.39 85,-400.45 85,-395.68"/>
<polygon fill="black" stroke="black" points="85,-410.37 89,-416.37 85,-422.37 81,-416.37 85,-410.37"/>
<polygon fill="black" stroke="black" points="88.5,-395.61 85,-385.61 81.5,-395.61 88.5,-395.61"/>
<text text-anchor="middle" x="61" y="-389.41" font-family="Times,serif" font-size="14.00">tznow </text>
</g>
<!-- 130863800146528 -->
<g id="node5" class="node">
<title>130863800146528</title>
<polygon fill="aliceblue" stroke="black" points="189,-339.5 189,-385.5 287,-385.5 287,-339.5 189,-339.5"/>
<text text-anchor="middle" x="238" y="-370.3" font-family="Times,serif" font-size="14.00">*Statement</text>
<polyline fill="none" stroke="black" points="189,-362.5 287,-362.5 "/>
<text text-anchor="middle" x="238" y="-347.3" font-family="Times,serif" font-size="14.00"> </text>
</g>
<!-- 130863799758160&#45;&gt;130863800146528 -->
<g id="edge4" class="edge">
<title>130863799758160&#45;&gt;130863800146528</title>
<path fill="none" stroke="black" d="M238,-410.2C238,-405.39 238,-400.45 238,-395.68"/>
<polygon fill="black" stroke="black" points="238,-410.37 242,-416.37 238,-422.37 234,-416.37 238,-410.37"/>
<polygon fill="black" stroke="black" points="241.5,-395.61 238,-385.61 234.5,-395.61 241.5,-395.61"/>
<text text-anchor="middle" x="199" y="-389.41" font-family="Times,serif" font-size="14.00">statement </text>
</g>
<!-- 130863800142640 -->
<g id="node6" class="node">
<title>130863800142640</title>
<polygon fill="aliceblue" stroke="black" points="0,-256.5 0,-302.5 92,-302.5 92,-256.5 0,-256.5"/>
<text text-anchor="middle" x="46" y="-287.3" font-family="Times,serif" font-size="14.00">CwModulo</text>
<polyline fill="none" stroke="black" points="0,-279.5 92,-279.5 "/>
<text text-anchor="start" x="8" y="-264.3" font-family="Times,serif" font-size="14.00">value: INT</text>
</g>
<!-- 130863800146528&#45;&gt;130863800142640 -->
<g id="edge8" class="edge">
<title>130863800146528&#45;&gt;130863800142640</title>
<path fill="none" stroke="black" d="M179.29,-336.73C151.36,-324.95 118.44,-311.06 92.31,-300.04"/>
<polygon fill="none" stroke="black" points="177.98,-339.98 188.56,-340.64 180.7,-333.53 177.98,-339.98"/>
</g>
<!-- 130863800146768 -->
<g id="node7" class="node">
<title>130863800146768</title>
<polygon fill="aliceblue" stroke="black" points="114,-256.5 114,-302.5 204,-302.5 204,-256.5 114,-256.5"/>
<text text-anchor="middle" x="159" y="-287.3" font-family="Times,serif" font-size="14.00">YModulo</text>
<polyline fill="none" stroke="black" points="114,-279.5 204,-279.5 "/>
<text text-anchor="start" x="122" y="-264.3" font-family="Times,serif" font-size="14.00">value: INT</text>
</g>
<!-- 130863800146528&#45;&gt;130863800146768 -->
<g id="edge9" class="edge">
<title>130863800146528&#45;&gt;130863800146768</title>
<path fill="none" stroke="black" d="M209.36,-332.14C199.86,-322.39 189.44,-311.71 180.56,-302.61"/>
<polygon fill="none" stroke="black" points="206.93,-334.65 216.41,-339.37 211.94,-329.76 206.93,-334.65"/>
</g>
<!-- 130863800146624 -->
<g id="node8" class="node">
<title>130863800146624</title>
<polygon fill="aliceblue" stroke="black" points="346,-256.5 346,-302.5 400,-302.5 400,-256.5 346,-256.5"/>
<text text-anchor="middle" x="373" y="-287.3" font-family="Times,serif" font-size="14.00">Floor</text>
<polyline fill="none" stroke="black" points="346,-279.5 400,-279.5 "/>
<text text-anchor="middle" x="373" y="-264.3" font-family="Times,serif" font-size="14.00"> </text>
</g>
<!-- 130863800146528&#45;&gt;130863800146624 -->
<g id="edge5" class="edge">
<title>130863800146528&#45;&gt;130863800146624</title>
<path fill="none" stroke="black" d="M283.5,-334.2C304.1,-321.84 327.76,-307.64 345.58,-296.95"/>
<polygon fill="none" stroke="black" points="281.66,-331.22 274.89,-339.37 285.27,-337.22 281.66,-331.22"/>
</g>
<!-- 130863800146192 -->
<g id="node9" class="node">
<title>130863800146192</title>
<polygon fill="aliceblue" stroke="black" points="127,-173.5 127,-219.5 217,-219.5 217,-173.5 127,-173.5"/>
<text text-anchor="middle" x="172" y="-204.3" font-family="Times,serif" font-size="14.00">Plus</text>
<polyline fill="none" stroke="black" points="127,-196.5 217,-196.5 "/>
<text text-anchor="start" x="135" y="-181.3" font-family="Times,serif" font-size="14.00">steps: INT</text>
</g>
<!-- 130863800146528&#45;&gt;130863800146192 -->
<g id="edge6" class="edge">
<title>130863800146528&#45;&gt;130863800146192</title>
<path fill="none" stroke="black" d="M234.54,-329.31C231.38,-307.82 225.54,-279.34 215,-256 209.14,-243.02 200.07,-230.1 191.77,-219.72"/>
<polygon fill="none" stroke="black" points="231.07,-329.8 235.88,-339.24 238.01,-328.86 231.07,-329.8"/>
</g>
<!-- 130863800146864 -->
<g id="node10" class="node">
<title>130863800146864</title>
<polygon fill="aliceblue" stroke="black" points="239,-173.5 239,-219.5 329,-219.5 329,-173.5 239,-173.5"/>
<text text-anchor="middle" x="284" y="-204.3" font-family="Times,serif" font-size="14.00">Minus</text>
<polyline fill="none" stroke="black" points="239,-196.5 329,-196.5 "/>
<text text-anchor="start" x="247" y="-181.3" font-family="Times,serif" font-size="14.00">steps: INT</text>
</g>
<!-- 130863800146528&#45;&gt;130863800146864 -->
<g id="edge7" class="edge">
<title>130863800146528&#45;&gt;130863800146864</title>
<path fill="none" stroke="black" d="M247.36,-329.59C249.87,-320.97 252.56,-311.63 255,-303 263.11,-274.3 272.18,-241.12 277.98,-219.75"/>
<polygon fill="none" stroke="black" points="243.97,-328.72 244.53,-339.3 250.69,-330.68 243.97,-328.72"/>
</g>
<!-- 130863800146960 -->
<g id="node11" class="node">
<title>130863800146960</title>
<polygon fill="aliceblue" stroke="black" points="351.5,-173.5 351.5,-219.5 450.5,-219.5 450.5,-173.5 351.5,-173.5"/>
<text text-anchor="middle" x="401" y="-204.3" font-family="Times,serif" font-size="14.00">*Clampable</text>
<polyline fill="none" stroke="black" points="351.5,-196.5 450.5,-196.5 "/>
<text text-anchor="middle" x="401" y="-181.3" font-family="Times,serif" font-size="14.00"> </text>
</g>
<!-- 130863800146624&#45;&gt;130863800146960 -->
<g id="edge10" class="edge">
<title>130863800146624&#45;&gt;130863800146960</title>
<path fill="none" stroke="black" d="M384.65,-244.78C386.45,-239.6 388.29,-234.27 390.06,-229.14"/>
<polygon fill="black" stroke="black" points="384.57,-245.02 386.39,-252 380.65,-256.37 378.83,-249.39 384.57,-245.02"/>
<polygon fill="black" stroke="black" points="393.4,-230.2 393.36,-219.61 386.78,-227.91 393.4,-230.2"/>
<text text-anchor="middle" x="379.36" y="-223.41" font-family="Times,serif" font-size="14.00">res </text>
</g>
<!-- 130863800147056 -->
<g id="node12" class="node">
<title>130863800147056</title>
<polygon fill="aliceblue" stroke="black" points="184.5,-15.5 184.5,-121.5 307.5,-121.5 307.5,-15.5 184.5,-15.5"/>
<text text-anchor="middle" x="246" y="-106.3" font-family="Times,serif" font-size="14.00">TimeUnitShort</text>
<polyline fill="none" stroke="black" points="184.5,-98.5 307.5,-98.5 "/>
<text text-anchor="start" x="192.5" y="-83.3" font-family="Times,serif" font-size="14.00">W: W</text>
<text text-anchor="start" x="192.5" y="-68.3" font-family="Times,serif" font-size="14.00">d: d</text>
<text text-anchor="start" x="192.5" y="-53.3" font-family="Times,serif" font-size="14.00">M: M</text>
<text text-anchor="start" x="192.5" y="-38.3" font-family="Times,serif" font-size="14.00">H: H</text>
<text text-anchor="start" x="192.5" y="-23.3" font-family="Times,serif" font-size="14.00">S: S</text>
</g>
<!-- 130863800146192&#45;&gt;130863800147056 -->
<g id="edge11" class="edge">
<title>130863800146192&#45;&gt;130863800147056</title>
<path fill="none" stroke="black" d="M191.19,-162.83C197.02,-152.9 203.62,-141.66 210.18,-130.5"/>
<polygon fill="black" stroke="black" points="191.14,-162.92 191.55,-170.12 185.06,-173.26 184.65,-166.06 191.14,-162.92"/>
<polygon fill="black" stroke="black" points="213.36,-131.99 215.41,-121.59 207.32,-128.44 213.36,-131.99"/>
<text text-anchor="middle" x="201.41" y="-125.39" font-family="Times,serif" font-size="14.00">res </text>
</g>
<!-- 130863800146864&#45;&gt;130863800147056 -->
<g id="edge12" class="edge">
<title>130863800146864&#45;&gt;130863800147056</title>
<path fill="none" stroke="black" d="M273.8,-161.68C270.96,-152.25 267.77,-141.69 264.61,-131.19"/>
<polygon fill="black" stroke="black" points="273.83,-161.77 279.39,-166.36 277.29,-173.26 271.73,-168.67 273.83,-161.77"/>
<polygon fill="black" stroke="black" points="267.95,-130.16 261.71,-121.59 261.25,-132.18 267.95,-130.16"/>
<text text-anchor="middle" x="247.71" y="-125.39" font-family="Times,serif" font-size="14.00">res </text>
</g>
<!-- 130863800146960&#45;&gt;130863800147056 -->
<g id="edge14" class="edge">
<title>130863800146960&#45;&gt;130863800147056</title>
<path fill="none" stroke="black" d="M359.51,-167.43C346.3,-158.09 331.8,-147.41 319,-137 313.11,-132.21 307.09,-127.07 301.15,-121.84"/>
<polygon fill="none" stroke="black" points="357.77,-170.49 367.97,-173.36 361.79,-164.76 357.77,-170.49"/>
</g>
<!-- 130863800147152 -->
<g id="node13" class="node">
<title>130863800147152</title>
<polygon fill="aliceblue" stroke="black" points="330,-38 330,-99 472,-99 472,-38 330,-38"/>
<text text-anchor="middle" x="401" y="-83.8" font-family="Times,serif" font-size="14.00">VariableTimeUnit</text>
<polyline fill="none" stroke="black" points="330,-76 472,-76 "/>
<text text-anchor="start" x="338" y="-60.8" font-family="Times,serif" font-size="14.00">Y: Y</text>
<text text-anchor="start" x="338" y="-45.8" font-family="Times,serif" font-size="14.00">m: m</text>
</g>
<!-- 130863800146960&#45;&gt;130863800147152 -->
<g id="edge15" class="edge">
<title>130863800146960&#45;&gt;130863800147152</title>
<path fill="none" stroke="black" d="M401,-163.19C401,-143.42 401,-118.33 401,-99.08"/>
<polygon fill="none" stroke="black" points="397.5,-163.26 401,-173.26 404.5,-163.26 397.5,-163.26"/>
</g>
<!-- 130863800147248 -->
<g id="node14" class="node">
<title>130863800147248</title>
<polygon fill="aliceblue" stroke="black" points="494.5,-0.5 494.5,-136.5 583.5,-136.5 583.5,-0.5 494.5,-0.5"/>
<text text-anchor="middle" x="539" y="-121.3" font-family="Times,serif" font-size="14.00">WeekDay</text>
<polyline fill="none" stroke="black" points="494.5,-113.5 583.5,-113.5 "/>
<text text-anchor="start" x="502.5" y="-98.3" font-family="Times,serif" font-size="14.00">Mon: Mon</text>
<text text-anchor="start" x="502.5" y="-83.3" font-family="Times,serif" font-size="14.00">Tue: Tue</text>
<text text-anchor="start" x="502.5" y="-68.3" font-family="Times,serif" font-size="14.00">Wed: Wed</text>
<text text-anchor="start" x="502.5" y="-53.3" font-family="Times,serif" font-size="14.00">Thu: Thu</text>
<text text-anchor="start" x="502.5" y="-38.3" font-family="Times,serif" font-size="14.00">Fri: Fri</text>
<text text-anchor="start" x="502.5" y="-23.3" font-family="Times,serif" font-size="14.00">Sat: Sat</text>
<text text-anchor="start" x="502.5" y="-8.3" font-family="Times,serif" font-size="14.00">Sun: Sun</text>
</g>
<!-- 130863800146960&#45;&gt;130863800147248 -->
<g id="edge13" class="edge">
<title>130863800146960&#45;&gt;130863800147248</title>
<path fill="none" stroke="black" d="M444.39,-167.69C457.35,-158.56 471.23,-147.94 483,-137 486.79,-133.48 490.56,-129.7 494.26,-125.79"/>
<polygon fill="none" stroke="black" points="442.27,-164.89 436.03,-173.45 446.25,-170.65 442.27,-164.89"/>
</g>
<!-- match_rules -->
<g id="node15" class="node">
<title>match_rules</title>
<polygon fill="aliceblue" stroke="transparent" points="691,-954 227,-954 227,-505 691,-505 691,-954"/>
<polygon fill="none" stroke="black" points="238,-925.5 238,-946.5 476,-946.5 476,-925.5 238,-925.5"/>
<text text-anchor="start" x="241" y="-933.3" font-family="Times,serif" font-weight="bold" font-size="14.00">CalendarWeekModuloMarker</text>
<polygon fill="none" stroke="black" points="478,-925.5 478,-946.5 680,-946.5 680,-925.5 478,-925.5"/>
<text text-anchor="start" x="491.5" y="-932.3" font-family="Times,serif" font-size="14.00">[%,@]\s*\b(CW|Cw|cw)\b</text>
<polygon fill="none" stroke="black" points="238,-902.5 238,-923.5 476,-923.5 476,-902.5 238,-902.5"/>
<text text-anchor="start" x="318.5" y="-910.3" font-family="Times,serif" font-weight="bold" font-size="14.00">Comment</text>
<polygon fill="none" stroke="black" points="478,-902.5 478,-923.5 680,-923.5 680,-902.5 478,-902.5"/>
<text text-anchor="start" x="509.5" y="-909.3" font-family="Times,serif" font-size="14.00">\/\*(.|\n)*?\*\/|\/\/.*?$</text>
<polygon fill="none" stroke="black" points="238,-879.5 238,-900.5 476,-900.5 476,-879.5 238,-879.5"/>
<text text-anchor="start" x="345.5" y="-887.3" font-family="Times,serif" font-weight="bold" font-size="14.00">Fri</text>
<polygon fill="none" stroke="black" points="478,-879.5 478,-900.5 680,-900.5 680,-879.5 478,-879.5"/>
<text text-anchor="start" x="557" y="-886.3" font-family="Times,serif" font-size="14.00">\bfri\b</text>
<polygon fill="none" stroke="black" points="238,-856.5 238,-877.5 476,-877.5 476,-856.5 238,-856.5"/>
<text text-anchor="start" x="350" y="-864.3" font-family="Times,serif" font-weight="bold" font-size="14.00">H</text>
<polygon fill="none" stroke="black" points="478,-856.5 478,-877.5 680,-877.5 680,-856.5 478,-856.5"/>
<text text-anchor="start" x="523" y="-863.3" font-family="Times,serif" font-size="14.00">([hH]ours?|H\b)</text>
<polygon fill="none" stroke="black" points="238,-833.5 238,-854.5 476,-854.5 476,-833.5 238,-833.5"/>
<text text-anchor="start" x="324" y="-841.3" font-family="Times,serif" font-weight="bold" font-size="14.00">ISODate</text>
<polygon fill="none" stroke="black" points="478,-833.5 478,-854.5 680,-854.5 680,-833.5 478,-833.5"/>
<text text-anchor="start" x="553" y="-840.3" font-family="Times,serif" font-size="14.00">\d+\S+</text>
<polygon fill="none" stroke="black" points="238,-810.5 238,-831.5 476,-831.5 476,-810.5 238,-810.5"/>
<text text-anchor="start" x="349" y="-818.3" font-family="Times,serif" font-weight="bold" font-size="14.00">M</text>
<polygon fill="none" stroke="black" points="478,-810.5 478,-831.5 680,-831.5 680,-810.5 478,-810.5"/>
<text text-anchor="start" x="512.5" y="-817.3" font-family="Times,serif" font-size="14.00">([mM]inutes?|M\b)</text>
<polygon fill="none" stroke="black" points="238,-787.5 238,-808.5 476,-808.5 476,-787.5 238,-787.5"/>
<text text-anchor="start" x="339" y="-795.3" font-family="Times,serif" font-weight="bold" font-size="14.00">Mon</text>
<polygon fill="none" stroke="black" points="478,-787.5 478,-808.5 680,-808.5 680,-787.5 478,-787.5"/>
<text text-anchor="start" x="550" y="-794.3" font-family="Times,serif" font-size="14.00">\bmon\b</text>
<polygon fill="none" stroke="black" points="238,-764.5 238,-785.5 476,-785.5 476,-764.5 238,-764.5"/>
<text text-anchor="start" x="317.5" y="-772.3" font-family="Times,serif" font-weight="bold" font-size="14.00">NaiveNow</text>
<polygon fill="none" stroke="black" points="478,-764.5 478,-785.5 680,-785.5 680,-764.5 478,-764.5"/>
<text text-anchor="start" x="564" y="-771.3" font-family="Times,serif" font-size="14.00">now</text>
<polygon fill="none" stroke="black" points="238,-741.5 238,-762.5 476,-762.5 476,-741.5 238,-741.5"/>
<text text-anchor="start" x="352" y="-749.3" font-family="Times,serif" font-weight="bold" font-size="14.00">S</text>
<polygon fill="none" stroke="black" points="478,-741.5 478,-762.5 680,-762.5 680,-741.5 478,-741.5"/>
<text text-anchor="start" x="490" y="-748.3" font-family="Times,serif" font-size="14.00">(?!sat$)([sS]econds?|S\b)</text>
<polygon fill="none" stroke="black" points="238,-718.5 238,-739.5 476,-739.5 476,-718.5 238,-718.5"/>
<text text-anchor="start" x="344" y="-726.3" font-family="Times,serif" font-weight="bold" font-size="14.00">Sat</text>
<polygon fill="none" stroke="black" points="478,-718.5 478,-739.5 680,-739.5 680,-718.5 478,-718.5"/>
<text text-anchor="start" x="554.5" y="-725.3" font-family="Times,serif" font-size="14.00">\bsat\b</text>
<polygon fill="none" stroke="black" points="238,-695.5 238,-716.5 476,-716.5 476,-695.5 238,-695.5"/>
<text text-anchor="start" x="341.5" y="-703.3" font-family="Times,serif" font-weight="bold" font-size="14.00">Sun</text>
<polygon fill="none" stroke="black" points="478,-695.5 478,-716.5 680,-716.5 680,-695.5 478,-695.5"/>
<text text-anchor="start" x="552.5" y="-702.3" font-family="Times,serif" font-size="14.00">\bsun\b</text>
<polygon fill="none" stroke="black" points="238,-672.5 238,-693.5 476,-693.5 476,-672.5 238,-672.5"/>
<text text-anchor="start" x="341" y="-680.3" font-family="Times,serif" font-weight="bold" font-size="14.00">Thu</text>
<polygon fill="none" stroke="black" points="478,-672.5 478,-693.5 680,-693.5 680,-672.5 478,-672.5"/>
<text text-anchor="start" x="553" y="-679.3" font-family="Times,serif" font-size="14.00">\bthu\b</text>
<polygon fill="none" stroke="black" points="238,-649.5 238,-670.5 476,-670.5 476,-649.5 238,-649.5"/>
<text text-anchor="start" x="342.5" y="-657.3" font-family="Times,serif" font-weight="bold" font-size="14.00">Tue</text>
<polygon fill="none" stroke="black" points="478,-649.5 478,-670.5 680,-670.5 680,-649.5 478,-649.5"/>
<text text-anchor="start" x="553.5" y="-656.3" font-family="Times,serif" font-size="14.00">\btue\b</text>
<polygon fill="none" stroke="black" points="238,-626.5 238,-647.5 476,-647.5 476,-626.5 238,-626.5"/>
<text text-anchor="start" x="349" y="-634.3" font-family="Times,serif" font-weight="bold" font-size="14.00">W</text>
<polygon fill="none" stroke="black" points="478,-626.5 478,-647.5 680,-647.5 680,-626.5 478,-626.5"/>
<text text-anchor="start" x="512.5" y="-633.3" font-family="Times,serif" font-size="14.00">\b([wW]eeks?|W)\b</text>
<polygon fill="none" stroke="black" points="238,-603.5 238,-624.5 476,-624.5 476,-603.5 238,-603.5"/>
<text text-anchor="start" x="340" y="-611.3" font-family="Times,serif" font-weight="bold" font-size="14.00">Wed</text>
<polygon fill="none" stroke="black" points="478,-603.5 478,-624.5 680,-624.5 680,-603.5 478,-603.5"/>
<text text-anchor="start" x="550.5" y="-610.3" font-family="Times,serif" font-size="14.00">\bwed\b</text>
<polygon fill="none" stroke="black" points="238,-580.5 238,-601.5 476,-601.5 476,-580.5 238,-580.5"/>
<text text-anchor="start" x="352" y="-588.3" font-family="Times,serif" font-weight="bold" font-size="14.00">Y</text>
<polygon fill="none" stroke="black" points="478,-580.5 478,-601.5 680,-601.5 680,-580.5 478,-580.5"/>
<text text-anchor="start" x="527" y="-587.3" font-family="Times,serif" font-size="14.00">([Yy]ears?|Y\b)</text>
<polygon fill="none" stroke="black" points="238,-557.5 238,-578.5 476,-578.5 476,-557.5 238,-557.5"/>
<text text-anchor="start" x="280.5" y="-565.3" font-family="Times,serif" font-weight="bold" font-size="14.00">YearModuloMarker</text>
<polygon fill="none" stroke="black" points="478,-557.5 478,-578.5 680,-578.5 680,-557.5 478,-557.5"/>
<text text-anchor="start" x="490" y="-564.3" font-family="Times,serif" font-size="14.00">[%,@]\s*\b(Y|y)(ears?)?\b</text>
<polygon fill="none" stroke="black" points="238,-534.5 238,-555.5 476,-555.5 476,-534.5 238,-534.5"/>
<text text-anchor="start" x="352" y="-542.3" font-family="Times,serif" font-weight="bold" font-size="14.00">d</text>
<polygon fill="none" stroke="black" points="478,-534.5 478,-555.5 680,-555.5 680,-534.5 478,-534.5"/>
<text text-anchor="start" x="529" y="-541.3" font-family="Times,serif" font-size="14.00">([dD]ays?|d\b)</text>
<polygon fill="none" stroke="black" points="238,-511.5 238,-532.5 476,-532.5 476,-511.5 238,-511.5"/>
<text text-anchor="start" x="349" y="-519.3" font-family="Times,serif" font-weight="bold" font-size="14.00">m</text>
<polygon fill="none" stroke="black" points="478,-511.5 478,-532.5 680,-532.5 680,-511.5 478,-511.5"/>
<text text-anchor="start" x="481" y="-518.3" font-family="Times,serif" font-size="14.00">(?!mon\b)([mM]onths?|m\b)</text>
<polygon fill="none" stroke="black" points="235,-509 235,-950 683,-950 683,-509 235,-509"/>
</g>
</g>
</svg>
