<?xml version="1.0" encoding="UTF-8" standalone="no"?>
<!DOCTYPE svg PUBLIC "-//W3C//DTD SVG 1.1//EN"
 "http://www.w3.org/Graphics/SVG/1.1/DTD/svg11.dtd">
<!-- Generated by graphviz version 2.43.0 (0)
 -->
<!-- Title: textX Pages: 1 -->
<svg width="585pt" height="349pt"
 viewBox="0.00 0.00 584.50 349.00" xmlns="http://www.w3.org/2000/svg" xmlns:xlink="http://www.w3.org/1999/xlink">
<g id="graph0" class="graph" transform="scale(1 1) rotate(0) translate(4 345)">
<title>textX</title>
<polygon fill="white" stroke="transparent" points="-4,4 -4,-345 580.5,-345 580.5,4 -4,4"/>
<!-- 128313215333248 -->
<g id="node1" class="node">
<title>128313215333248</title>
<polygon fill="aliceblue" stroke="black" points="186.5,-294.5 186.5,-340.5 278.5,-340.5 278.5,-294.5 186.5,-294.5"/>
<text text-anchor="middle" x="232.5" y="-325.3" font-family="Times,serif" font-size="14.00">:DateMath</text>
<polyline fill="none" stroke="black" points="186.5,-317.5 278.5,-317.5 "/>
<text text-anchor="middle" x="232.5" y="-302.3" font-family="Times,serif" font-size="14.00"> </text>
</g>
<!-- 128313215327680 -->
<g id="node2" class="node">
<title>128313215327680</title>
<polygon fill="aliceblue" stroke="black" points="0,-196.5 0,-242.5 71,-242.5 71,-196.5 0,-196.5"/>
<text text-anchor="middle" x="35.5" y="-227.3" font-family="Times,serif" font-size="14.00">:Anchor</text>
<polyline fill="none" stroke="black" points="0,-219.5 71,-219.5 "/>
<text text-anchor="middle" x="35.5" y="-204.3" font-family="Times,serif" font-size="14.00"> </text>
</g>
<!-- 128313215333248&#45;&gt;128313215327680 -->
<g id="edge1" class="edge">
<title>128313215333248&#45;&gt;128313215327680</title>
<path fill="none" stroke="black" d="M174.44,-305.3C149.42,-298.96 120.47,-289.53 96.5,-276 84.18,-269.05 72.28,-259.19 62.32,-249.71"/>
<polygon fill="black" stroke="black" points="174.7,-305.36 181.46,-302.87 186.36,-308.16 179.59,-310.65 174.7,-305.36"/>
<polygon fill="black" stroke="black" points="64.67,-247.12 55.1,-242.59 59.76,-252.1 64.67,-247.12"/>
<text text-anchor="middle" x="121" y="-264.8" font-family="Times,serif" font-size="14.00">anchor</text>
</g>
<!-- 128313215323120 -->
<g id="node3" class="node">
<title>128313215323120</title>
<polygon fill="aliceblue" stroke="black" points="93,-196.5 93,-242.5 222,-242.5 222,-196.5 93,-196.5"/>
<text text-anchor="middle" x="157.5" y="-227.3" font-family="Times,serif" font-size="14.00">:DateMathTerm</text>
<polyline fill="none" stroke="black" points="93,-219.5 222,-219.5 "/>
<text text-anchor="middle" x="157.5" y="-204.3" font-family="Times,serif" font-size="14.00"> </text>
</g>
<!-- 128313215333248&#45;&gt;128313215323120 -->
<g id="edge2" class="edge">
<title>128313215333248&#45;&gt;128313215323120</title>
<path fill="none" stroke="black" d="M175.79,-296.76C167.31,-291.34 159.68,-284.53 154.5,-276 150.31,-269.1 149.18,-260.78 149.55,-252.71"/>
<polygon fill="black" stroke="black" points="175.97,-296.86 183.16,-296.29 186.45,-302.7 179.27,-303.28 175.97,-296.86"/>
<polygon fill="black" stroke="black" points="153.03,-253.08 150.72,-242.74 146.08,-252.27 153.03,-253.08"/>
<text text-anchor="middle" x="219.5" y="-264.8" font-family="Times,serif" font-size="14.00">date_math_term:0</text>
</g>
<!-- 128313215995584 -->
<g id="node6" class="node">
<title>128313215995584</title>
<polygon fill="aliceblue" stroke="black" points="247,-196.5 247,-242.5 376,-242.5 376,-196.5 247,-196.5"/>
<text text-anchor="middle" x="311.5" y="-227.3" font-family="Times,serif" font-size="14.00">:DateMathTerm</text>
<polyline fill="none" stroke="black" points="247,-219.5 376,-219.5 "/>
<text text-anchor="middle" x="311.5" y="-204.3" font-family="Times,serif" font-size="14.00"> </text>
</g>
<!-- 128313215333248&#45;&gt;128313215995584 -->
<g id="edge5" class="edge">
<title>128313215333248&#45;&gt;128313215995584</title>
<path fill="none" stroke="black" d="M276,-286.19C279.41,-282.96 282.64,-279.55 285.5,-276 291.21,-268.91 296.01,-260.37 299.86,-252.13"/>
<polygon fill="black" stroke="black" points="275.69,-286.46 273.78,-293.41 266.62,-294.31 268.54,-287.36 275.69,-286.46"/>
<polygon fill="black" stroke="black" points="303.18,-253.27 303.96,-242.7 296.76,-250.48 303.18,-253.27"/>
<text text-anchor="middle" x="360.5" y="-264.8" font-family="Times,serif" font-size="14.00">date_math_term:1</text>
</g>
<!-- 128313215324944 -->
<g id="node9" class="node">
<title>128313215324944</title>
<polygon fill="aliceblue" stroke="black" points="404,-196.5 404,-242.5 533,-242.5 533,-196.5 404,-196.5"/>
<text text-anchor="middle" x="468.5" y="-227.3" font-family="Times,serif" font-size="14.00">:DateMathTerm</text>
<polyline fill="none" stroke="black" points="404,-219.5 533,-219.5 "/>
<text text-anchor="middle" x="468.5" y="-204.3" font-family="Times,serif" font-size="14.00"> </text>
</g>
<!-- 128313215333248&#45;&gt;128313215324944 -->
<g id="edge8" class="edge">
<title>128313215333248&#45;&gt;128313215324944</title>
<path fill="none" stroke="black" d="M290.64,-315.95C332.62,-313 389,-303.55 430.5,-276 439.79,-269.83 447.44,-260.54 453.37,-251.32"/>
<polygon fill="black" stroke="black" points="290.64,-315.95 284.88,-320.29 278.66,-316.65 284.42,-312.31 290.64,-315.95"/>
<polygon fill="black" stroke="black" points="456.45,-252.99 458.54,-242.6 450.43,-249.42 456.45,-252.99"/>
<text text-anchor="middle" x="511.5" y="-264.8" font-family="Times,serif" font-size="14.00">date_math_term:2</text>
</g>
<!-- 128313215331664 -->
<g id="node4" class="node">
<title>128313215331664</title>
<polygon fill="aliceblue" stroke="black" points="128,-98.5 128,-144.5 187,-144.5 187,-98.5 128,-98.5"/>
<text text-anchor="middle" x="157.5" y="-129.3" font-family="Times,serif" font-size="14.00">:Floor</text>
<polyline fill="none" stroke="black" points="128,-121.5 187,-121.5 "/>
<text text-anchor="middle" x="157.5" y="-106.3" font-family="Times,serif" font-size="14.00"> </text>
</g>
<!-- 128313215323120&#45;&gt;128313215331664 -->
<g id="edge3" class="edge">
<title>128313215323120&#45;&gt;128313215331664</title>
<path fill="none" stroke="black" d="M157.5,-184.22C157.5,-174.65 157.5,-164.29 157.5,-154.84"/>
<polygon fill="black" stroke="black" points="157.5,-184.23 161.5,-190.23 157.5,-196.23 153.5,-190.23 157.5,-184.23"/>
<polygon fill="black" stroke="black" points="161,-154.64 157.5,-144.64 154,-154.64 161,-154.64"/>
<text text-anchor="middle" x="194" y="-166.8" font-family="Times,serif" font-size="14.00">statement</text>
</g>
<!-- 128313215331088 -->
<g id="node5" class="node">
<title>128313215331088</title>
<polygon fill="aliceblue" stroke="black" points="93.5,-0.5 93.5,-46.5 221.5,-46.5 221.5,-0.5 93.5,-0.5"/>
<text text-anchor="middle" x="157.5" y="-31.3" font-family="Times,serif" font-size="14.00">:TimeUnitShort</text>
<polyline fill="none" stroke="black" points="93.5,-23.5 221.5,-23.5 "/>
<text text-anchor="start" x="101.5" y="-8.3" font-family="Times,serif" font-size="14.00">+m:str=&#39;m&#39;</text>
</g>
<!-- 128313215331664&#45;&gt;128313215331088 -->
<g id="edge4" class="edge">
<title>128313215331664&#45;&gt;128313215331088</title>
<path fill="none" stroke="black" d="M157.5,-86.22C157.5,-76.65 157.5,-66.29 157.5,-56.84"/>
<polygon fill="black" stroke="black" points="157.5,-86.23 161.5,-92.23 157.5,-98.23 153.5,-92.23 157.5,-86.23"/>
<polygon fill="black" stroke="black" points="161,-56.64 157.5,-46.64 154,-56.64 161,-56.64"/>
<text text-anchor="middle" x="169" y="-68.8" font-family="Times,serif" font-size="14.00">res</text>
</g>
<!-- 128313215331376 -->
<g id="node7" class="node">
<title>128313215331376</title>
<polygon fill="aliceblue" stroke="black" points="255.5,-98.5 255.5,-144.5 367.5,-144.5 367.5,-98.5 255.5,-98.5"/>
<text text-anchor="middle" x="311.5" y="-129.3" font-family="Times,serif" font-size="14.00">:Minus</text>
<polyline fill="none" stroke="black" points="255.5,-121.5 367.5,-121.5 "/>
<text text-anchor="start" x="263.5" y="-106.3" font-family="Times,serif" font-size="14.00">+steps:int=1</text>
</g>
<!-- 128313215995584&#45;&gt;128313215331376 -->
<g id="edge6" class="edge">
<title>128313215995584&#45;&gt;128313215331376</title>
<path fill="none" stroke="black" d="M311.5,-184.22C311.5,-174.65 311.5,-164.29 311.5,-154.84"/>
<polygon fill="black" stroke="black" points="311.5,-184.23 315.5,-190.23 311.5,-196.23 307.5,-190.23 311.5,-184.23"/>
<polygon fill="black" stroke="black" points="315,-154.64 311.5,-144.64 308,-154.64 315,-154.64"/>
<text text-anchor="middle" x="348" y="-166.8" font-family="Times,serif" font-size="14.00">statement</text>
</g>
<!-- 128313215330464 -->
<g id="node8" class="node">
<title>128313215330464</title>
<polygon fill="aliceblue" stroke="black" points="247.5,-0.5 247.5,-46.5 375.5,-46.5 375.5,-0.5 247.5,-0.5"/>
<text text-anchor="middle" x="311.5" y="-31.3" font-family="Times,serif" font-size="14.00">:TimeUnitShort</text>
<polyline fill="none" stroke="black" points="247.5,-23.5 375.5,-23.5 "/>
<text text-anchor="start" x="255.5" y="-8.3" font-family="Times,serif" font-size="14.00">+d:str=&#39;d&#39;</text>
</g>
<!-- 128313215331376&#45;&gt;128313215330464 -->
<g id="edge7" class="edge">
<title>128313215331376&#45;&gt;128313215330464</title>
<path fill="none" stroke="black" d="M311.5,-86.22C311.5,-76.65 311.5,-66.29 311.5,-56.84"/>
<polygon fill="black" stroke="black" points="311.5,-86.23 315.5,-92.23 311.5,-98.23 307.5,-92.23 311.5,-86.23"/>
<polygon fill="black" stroke="black" points="315,-56.64 311.5,-46.64 308,-56.64 315,-56.64"/>
<text text-anchor="middle" x="323" y="-68.8" font-family="Times,serif" font-size="14.00">res</text>
</g>
<!-- 128313215330800 -->
<g id="node10" class="node">
<title>128313215330800</title>
<polygon fill="aliceblue" stroke="black" points="439,-98.5 439,-144.5 498,-144.5 498,-98.5 439,-98.5"/>
<text text-anchor="middle" x="468.5" y="-129.3" font-family="Times,serif" font-size="14.00">:Floor</text>
<polyline fill="none" stroke="black" points="439,-121.5 498,-121.5 "/>
<text text-anchor="middle" x="468.5" y="-106.3" font-family="Times,serif" font-size="14.00"> </text>
</g>
<!-- 128313215324944&#45;&gt;128313215330800 -->
<g id="edge9" class="edge">
<title>128313215324944&#45;&gt;128313215330800</title>
<path fill="none" stroke="black" d="M468.5,-184.22C468.5,-174.65 468.5,-164.29 468.5,-154.84"/>
<polygon fill="black" stroke="black" points="468.5,-184.23 472.5,-190.23 468.5,-196.23 464.5,-190.23 468.5,-184.23"/>
<polygon fill="black" stroke="black" points="472,-154.64 468.5,-144.64 465,-154.64 472,-154.64"/>
<text text-anchor="middle" x="505" y="-166.8" font-family="Times,serif" font-size="14.00">statement</text>
</g>
<!-- 128313215334160 -->
<g id="node11" class="node">
<title>128313215334160</title>
<polygon fill="aliceblue" stroke="black" points="409,-0.5 409,-46.5 528,-46.5 528,-0.5 409,-0.5"/>
<text text-anchor="middle" x="468.5" y="-31.3" font-family="Times,serif" font-size="14.00">:WeekDay</text>
<polyline fill="none" stroke="black" points="409,-23.5 528,-23.5 "/>
<text text-anchor="start" x="417" y="-8.3" font-family="Times,serif" font-size="14.00">+Sat:str=&#39;sat&#39;</text>
</g>
<!-- 128313215330800&#45;&gt;128313215334160 -->
<g id="edge10" class="edge">
<title>128313215330800&#45;&gt;128313215334160</title>
<path fill="none" stroke="black" d="M468.5,-86.22C468.5,-76.65 468.5,-66.29 468.5,-56.84"/>
<polygon fill="black" stroke="black" points="468.5,-86.23 472.5,-92.23 468.5,-98.23 464.5,-92.23 468.5,-86.23"/>
<polygon fill="black" stroke="black" points="472,-56.64 468.5,-46.64 465,-56.64 472,-56.64"/>
<text text-anchor="middle" x="480" y="-68.8" font-family="Times,serif" font-size="14.00">res</text>
</g>
</g>
</svg>
